<svg aria-hidden="true" style="position: absolute; width: 0; height: 0; overflow: hidden;" version="1.1" xmlns="http://www.w3.org/2000/svg" xmlns:xlink="http://www.w3.org/1999/xlink">
<defs>
<symbol id="icon-close" viewBox="0 0 32 32">
<path stroke-linejoin="round" stroke-linecap="round" stroke-miterlimit="4" stroke-width="2.6667" d="M24 8l-16 16"></path>
<path stroke-linejoin="round" stroke-linecap="round" stroke-miterlimit="4" stroke-width="2.6667" d="M8 8l16 16"></path>
</symbol>
<symbol id="icon-burger-button" viewBox="0 0 32 32">
<path stroke-linejoin="round" stroke-linecap="round" stroke-miterlimit="4" stroke-width="2.4" d="M5.3 7.967h21.333M5.3 15.967h21.333M5.3 23.967h21.333"></path>
</symbol>
<symbol id="icon-logo" viewBox="0 0 21 32">
<path stroke-linejoin="miter" stroke-linecap="butt" stroke-miterlimit="4" stroke-width="0.8" d="M11.72 11.861c0.129-0.348 0.621-0.348 0.75 0l1.715 4.634c0.122 0.328 0.381 0.587 0.709 0.709l4.634 1.715c0.348 0.129 0.348 0.621 0 0.75l-4.634 1.715c-0.328 0.122-0.587 0.381-0.709 0.709l-1.715 4.634c-0.129 0.348-0.621 0.348-0.75 0l-1.715-4.634c-0.122-0.328-0.381-0.587-0.709-0.709l-4.635-1.715c-0.348-0.129-0.348-0.621 0-0.75l4.635-1.715c0.328-0.122 0.587-0.381 0.709-0.709l1.715-4.634z"></path>
<path stroke-linejoin="miter" stroke-linecap="butt" stroke-miterlimit="4" stroke-width="0.8" d="M7.72 0.661c0.129-0.348 0.621-0.348 0.75 0l1.715 4.635c0.122 0.328 0.381 0.587 0.709 0.709l4.634 1.715c0.348 0.129 0.348 0.621 0 0.75l-4.634 1.715c-0.328 0.122-0.587 0.381-0.709 0.709l-1.715 4.634c-0.129 0.348-0.621 0.348-0.75 0l-1.715-4.634c-0.122-0.328-0.381-0.587-0.709-0.709l-4.635-1.715c-0.348-0.129-0.348-0.621 0-0.75l4.635-1.715c0.328-0.122 0.587-0.381 0.709-0.709l1.715-4.635z"></path>
</symbol>
<symbol id="icon-copyright" viewBox="0 0 30 32">
<path d="M14.901 11.206c1.687 0.078 2.121 1.502 2.148 2.168h2.359c-0.105-2.586-1.963-4.166-4.546-4.166-2.912 0-5.073 1.815-5.073 5.915 0 2.533 1.225 5.537 5.060 5.537 2.925 0 4.493-2.155 4.533-3.852h-2.359c-0.040 0.77-0.593 1.802-2.148 1.88-1.726-0.052-2.451-1.384-2.451-3.565 0-3.774 1.687-3.891 2.477-3.918zM15.059 1.882c-7.273 0-13.176 5.85-13.176 13.059s5.903 13.059 13.176 13.059 13.176-5.85 13.176-13.059c0-7.208-5.903-13.059-13.176-13.059zM15.059 25.388c-5.811 0-10.541-4.688-10.541-10.447s4.73-10.447 10.541-10.447c5.811 0 10.541 4.688 10.541 10.447s-4.73 10.447-10.541 10.447z"></path>
</symbol>
<symbol id="icon-facebook" viewBox="0 0 32 32">
<path stroke-linejoin="miter" stroke-linecap="butt" stroke-miterlimit="4" stroke-width="0.8" d="M31.6 16c0 8.616-6.984 15.6-15.6 15.6s-15.6-6.984-15.6-15.6c0-8.616 6.984-15.6 15.6-15.6s15.6 6.984 15.6 15.6z"></path>
<path d="M17.6 17.2h2l0.8-3.2h-2.8v-1.6c0-0.824 0-1.6 1.6-1.6h1.2v-2.688c-0.261-0.034-1.246-0.112-2.286-0.112-2.172 0-3.714 1.326-3.714 3.76v2.24h-2.4v3.2h2.4v6.8h3.2v-6.8z"></path>
</symbol>
<symbol id="icon-linkedin" viewBox="0 0 32 32">
<path stroke-linejoin="miter" stroke-linecap="butt" stroke-miterlimit="4" stroke-width="0.8" d="M31.6 16c0 8.616-6.984 15.6-15.6 15.6s-15.6-6.984-15.6-15.6c0-8.616 6.984-15.6 15.6-15.6s15.6 6.984 15.6 15.6z"></path>
<path d="M17.107 14.295c0.189-0.22 0.34-0.443 0.538-0.63 0.28-0.282 0.611-0.503 0.975-0.652s0.752-0.221 1.143-0.213c0.45-0.008 0.9 0.048 1.336 0.167 0.997 0.299 1.575 1.006 1.853 2.011 0.184 0.753 0.267 1.528 0.247 2.304 0 1.638 0 3.275 0 4.917 0 0.153-0.041 0.193-0.187 0.191-0.819-0.007-1.636-0.007-2.451 0-0.145 0-0.17-0.044-0.17-0.176 0-1.558 0-3.117 0-4.675 0.008-0.391-0.036-0.782-0.133-1.161-0.196-0.702-0.68-1.054-1.39-1.017-0.968 0.053-1.473 0.55-1.596 1.567-0.030 0.242-0.045 0.486-0.044 0.731 0 1.516 0 3.031 0 4.547 0 0.151-0.037 0.195-0.187 0.193-0.822 0-1.645 0-2.468 0-0.133 0-0.17-0.035-0.17-0.176 0-3 0-6 0-9 0-0.149 0.046-0.176 0.182-0.176 0.783 0.007 1.565 0.007 2.346 0 0.143 0 0.18 0.047 0.17 0.188 0.003 0.341 0.008 0.699 0.008 1.059z"></path>
<path d="M17.107 14.295h-0.8v2.157l1.406-1.635-0.606-0.522zM17.644 13.665l0.552 0.579 0.008-0.008 0.008-0.008-0.567-0.564zM19.762 12.801l-0.016 0.8 0.015 0 0.015-0-0.014-0.8zM21.098 12.968l0.23-0.766-0.010-0.003-0.010-0.003-0.21 0.772zM22.95 14.978l0.777-0.19-0.003-0.012-0.003-0.012-0.771 0.213zM23.197 17.282l-0.8-0.021-0 0.010v0.010h0.8zM23.010 22.391l0.010-0.8h-0.003l-0.007 0.8zM20.558 22.391v0.8l0.007-0-0.007-0.8zM20.388 17.541l-0.8-0.017-0 0.009v0.009h0.8zM20.256 16.38l0.775-0.198-0.002-0.008-0.002-0.008-0.771 0.215zM18.866 15.363l-0.042-0.799-0.002 0 0.044 0.799zM17.27 16.93l0.794 0.098 0-0.003-0.794-0.096zM17.226 17.66h0.8v-0.002l-0.8 0.002zM17.039 22.4l0.009-0.8h-0.009v0.8zM14.582 13.048l0.007-0.8h-0.007v0.8zM16.928 13.048v-0.8l-0.007 0 0.007 0.8zM17.098 13.236l-0.798-0.058-0.002 0.033 0 0.033 0.8-0.008zM17.713 14.817c0.105-0.122 0.211-0.259 0.282-0.346 0.080-0.099 0.141-0.169 0.201-0.226l-1.103-1.159c-0.137 0.131-0.251 0.266-0.343 0.38-0.102 0.126-0.166 0.21-0.25 0.308l1.213 1.043zM18.212 14.229c0.205-0.206 0.447-0.367 0.71-0.475l-0.604-1.481c-0.464 0.189-0.886 0.471-1.24 0.828l1.135 1.128zM18.921 13.754c0.263-0.107 0.543-0.159 0.824-0.153l0.033-1.6c-0.5-0.010-0.997 0.082-1.462 0.272l0.604 1.481zM19.776 13.601c0.375-0.007 0.748 0.040 1.111 0.139l0.421-1.544c-0.509-0.139-1.034-0.204-1.56-0.195l0.028 1.6zM20.868 13.734c0.683 0.204 1.092 0.663 1.311 1.457l1.542-0.426c-0.335-1.215-1.083-2.172-2.394-2.564l-0.459 1.533zM22.173 15.168c0.167 0.684 0.242 1.388 0.224 2.094l1.599 0.041c0.022-0.847-0.069-1.693-0.269-2.515l-1.554 0.38zM22.397 17.282c0 0.819 0 1.638 0 2.457 0 0.003 0 0.006 0 0.010s0 0.006 0 0.010c0 0.003 0 0.006 0 0.010s0 0.006 0 0.010c0 0.003 0 0.006 0 0.010s0 0.006 0 0.010c0 0.003 0 0.006 0 0.010s0 0.006 0 0.010c0 0.003 0 0.006 0 0.010s0 0.006 0 0.010c0 0.003 0 0.006 0 0.010s0 0.006 0 0.010c0 0.003 0 0.006 0 0.010s0 0.006 0 0.010c0 0.003 0 0.006 0 0.010s0 0.006 0 0.010c0 0.003 0 0.006 0 0.010s0 0.006 0 0.010c0 0.003 0 0.006 0 0.010s0 0.006 0 0.010c0 0.003 0 0.006 0 0.010s0 0.006 0 0.010c0 0.003 0 0.006 0 0.010s0 0.006 0 0.010c0 0.003 0 0.006 0 0.010s0 0.006 0 0.010c0 0.003 0 0.006 0 0.010s0 0.006 0 0.010c0 0.003 0 0.006 0 0.010s0 0.006 0 0.010c0 0.003 0 0.006 0 0.010s0 0.006 0 0.010c0 0.003 0 0.006 0 0.010s0 0.006 0 0.010c0 0.003 0 0.006 0 0.010s0 0.006 0 0.010c0 0.003 0 0.006 0 0.010s0 0.006 0 0.010c0 0.003 0 0.006 0 0.010s0 0.006 0 0.010c0 0.068 0 0.009 0 0.077 0 0.003 0 0.006 0 0.010s0 0.006 0 0.010 0 0.006 0 0.010 0 0.006 0 0.010 0 0.006 0 0.010 0 0.006 0 0.010 0 0.006 0 0.010 0 0.006 0 0.010 0 0.006 0 0.010 0 0.006 0 0.010 0 0.006 0 0.010 0 0.006 0 0.010 0 0.006 0 0.010 0 0.006 0 0.010 0 0.006 0 0.010 0 0.006 0 0.010 0 0.006 0 0.010 0 0.006 0 0.010 0 0.006 0 0.010 0 0.006 0 0.010 0 0.006 0 0.010 0 0.006 0 0.010 0 0.006 0 0.010 0 0.006 0 0.010 0 0.006 0 0.010 0 0.006 0 0.010 0 0.006 0 0.010 0 0.006 0 0.010 0 0.006 0 0.010 0 0.006 0 0.010 0 0.006 0 0.010 0 0.006 0 0.010 0 0.006 0 0.010 0 0.006 0 0.010 0 0.006 0 0.010 0 0.006 0 0.010 0 0.006 0 0.010 0 0.006 0 0.010 0 0.006 0 0.010 0 0.006 0 0.010c0 0.003 0 0.006 0 0.010s0 0.006 0 0.010c0 0.003 0 0.006 0 0.010s0 0.006 0 0.010c0 0.003 0 0.006 0 0.010s0 0.006 0 0.010c0 0.003 0 0.006 0 0.010s0 0.006 0 0.010c0 0.003 0 0.006 0 0.010s0 0.006 0 0.010c0 0.003 0 0.006 0 0.010s0 0.006 0 0.010c0 0.003 0 0.006 0 0.010s0 0.006 0 0.010c0 0.003 0 0.006 0 0.010s0 0.006 0 0.010c0 0.068 0 0.008 0 0.077 0 0.003 0 0.006 0 0.010s0 0.006 0 0.010c0 0.003 0 0.006 0 0.010s0 0.006 0 0.010c0 0.003 0 0.006 0 0.010s0 0.006 0 0.010c0 0.003 0 0.006 0 0.010s0 0.006 0 0.010c0 0.003 0 0.006 0 0.010s0 0.006 0 0.010c0 0.003 0 0.006 0 0.010s0 0.006 0 0.010c0 0.003 0 0.006 0 0.010s0 0.006 0 0.010c0 0.003 0 0.006 0 0.010s0 0.006 0 0.010c0 0.003 0 0.006 0 0.010s0 0.006 0 0.010c0 0.003 0 0.006 0 0.010s0 0.006 0 0.010c0 0.003 0 0.006 0 0.010s0 0.006 0 0.010c0 0.003 0 0.006 0 0.010s0 0.006 0 0.010c0 0.003 0 0.006 0 0.010s0 0.006 0 0.010c0 0.003 0 0.006 0 0.010s0 0.006 0 0.010c0 0.003 0 0.006 0 0.010s0 0.006 0 0.010c0 0.003 0 0.006 0 0.010s0 0.006 0 0.010c0 0.003 0 0.006 0 0.010s0 0.006 0 0.010c0 0.003 0 0.006 0 0.010s0 0.006 0 0.010c0 0.003 0 0.006 0 0.010s0 0.006 0 0.010c0 0.003 0 0.006 0 0.010s0 0.006 0 0.010c0 0.003 0 0.006 0 0.010s0 0.006 0 0.010c0 0.003 0 0.006 0 0.010s0 0.006 0 0.010c0 0.003 0 0.006 0 0.010s0 0.006 0 0.010c0 0.003 0 0.006 0 0.010s0 0.006 0 0.010c0 0.003 0 0.006 0 0.010s0 0.006 0 0.010c0 0.003 0 0.006 0 0.010s0 0.006 0 0.010c0 0.003 0 0.006 0 0.010s0 0.006 0 0.010 0 0.006 0 0.010 0 0.006 0 0.010c0 0.034 0 0.004 0 0.038 0 0.003 0 0.006 0 0.010s0 0.006 0 0.010c0 0.003 0 0.006 0 0.010s0 0.006 0 0.010c0 0.003 0 0.006 0 0.010s0 0.006 0 0.010c0 0.003 0 0.006 0 0.010s0 0.006 0 0.010c0 0.003 0 0.006 0 0.010s0 0.006 0 0.010c0 0.003 0 0.006 0 0.010s0 0.006 0 0.010c0 0.003 0 0.006 0 0.010s0 0.006 0 0.010c0 0.003 0 0.006 0 0.010s0 0.006 0 0.010c0 0.003 0 0.006 0 0.010s0 0.006 0 0.010c0 0.003 0 0.006 0 0.010s0 0.006 0 0.010c0 0.003 0 0.006 0 0.010s0 0.006 0 0.010c0 0.003 0 0.006 0 0.010s0 0.006 0 0.010c0 0.003 0 0.006 0 0.010s0 0.006 0 0.010c0 0.003 0 0.006 0 0.010s0 0.006 0 0.010c0 0.003 0 0.006 0 0.010s0 0.006 0 0.010c0 0.003 0 0.006 0 0.010s0 0.006 0 0.010c0 0.003 0 0.006 0 0.010s0 0.006 0 0.010c0 0.003 0 0.006 0 0.010s0 0.006 0 0.010 0 0.006 0 0.010 0 0.006 0 0.010 0 0.006 0 0.010 0 0.006 0 0.010c0 0.003 0 0.006 0 0.010s0 0.006 0 0.010c0 0.003 0 0.006 0 0.010s0 0.006 0 0.010c0 0.003 0 0.006 0 0.010s0 0.006 0 0.010c0 0.003 0 0.006 0 0.010s0 0.006 0 0.010c0 0.003 0 0.006 0 0.010s0 0.006 0 0.010 0 0.006 0 0.010 0 0.006 0 0.010 0 0.006 0 0.010 0 0.006 0 0.010c0 0.003 0 0.006 0 0.010s0 0.006 0 0.010c0 0.003 0 0.006 0 0.010s0 0.006 0 0.010c0 0.003 0 0.006 0 0.010s0 0.006 0 0.010c0 0.003 0 0.006 0 0.010s0 0.006 0 0.010c0 0.003 0 0.006 0 0.010s0 0.006 0 0.010 0 0.006 0 0.010 0 0.006 0 0.010 0 0.006 0 0.010 0 0.006 0 0.010 0 0.006 0 0.010 0 0.006 0 0.010 0 0.006 0 0.010 0 0.006 0 0.010 0 0.006 0 0.010 0 0.006 0 0.010 0 0.006 0 0.010 0 0.006 0 0.010 0 0.006 0 0.010 0 0.006 0 0.010 0 0.006 0 0.010 0 0.006 0 0.010 0 0.006 0 0.010 0 0.006 0 0.010 0 0.006 0 0.010 0 0.006 0 0.010h1.6c0-0.003 0-0.006 0-0.010s0-0.006 0-0.010 0-0.006 0-0.010 0-0.006 0-0.010 0-0.006 0-0.010 0-0.006 0-0.010 0-0.006 0-0.010 0-0.006 0-0.010 0-0.006 0-0.010 0-0.006 0-0.010 0-0.006 0-0.010 0-0.006 0-0.010 0-0.006 0-0.010 0-0.006 0-0.010 0-0.006 0-0.010 0-0.006 0-0.010 0-0.006 0-0.010 0-0.006 0-0.010 0-0.006 0-0.010 0-0.006 0-0.010 0-0.006 0-0.010 0-0.006 0-0.010 0-0.006 0-0.010 0-0.006 0-0.010 0-0.006 0-0.010 0-0.006 0-0.010 0-0.006 0-0.010 0-0.006 0-0.010 0-0.006 0-0.010 0-0.006 0-0.010c0-0.003 0-0.006 0-0.010s0-0.006 0-0.010c0-0.003 0-0.006 0-0.010s0-0.006 0-0.010c0-0.003 0-0.006 0-0.010s0-0.006 0-0.010 0-0.006 0-0.010 0-0.006 0-0.010 0-0.006 0-0.010 0-0.006 0-0.010 0-0.006 0-0.010 0-0.006 0-0.010 0-0.006 0-0.010 0-0.006 0-0.010c0-0.003 0-0.006 0-0.010s0-0.006 0-0.010c0-0.003 0-0.006 0-0.010s0-0.006 0-0.010c0-0.003 0-0.006 0-0.010s0-0.006 0-0.010 0-0.006 0-0.010 0-0.006 0-0.010 0-0.006 0-0.010 0-0.006 0-0.010 0-0.006 0-0.010 0-0.006 0-0.010 0-0.006 0-0.010 0-0.006 0-0.010 0-0.006 0-0.010 0-0.006 0-0.010c0-0.003 0-0.006 0-0.010s0-0.006 0-0.010c0-0.003 0-0.006 0-0.010s0-0.006 0-0.010c0-0.003 0-0.006 0-0.010s0-0.006 0-0.010c0-0.003 0-0.006 0-0.010s0-0.006 0-0.010c0-0.003 0-0.006 0-0.010s0-0.006 0-0.010c0-0.003 0-0.006 0-0.010s0-0.006 0-0.010c0-0.003 0-0.006 0-0.010s0-0.006 0-0.010c0-0.003 0-0.006 0-0.010s0-0.006 0-0.010c0-0.003 0-0.006 0-0.010s0-0.006 0-0.010c0-0.003 0-0.006 0-0.010s0-0.006 0-0.010c0-0.068 0-0.009 0-0.077 0-0.003 0-0.006 0-0.010s0-0.006 0-0.010c0-0.003 0-0.006 0-0.010s0-0.006 0-0.010 0-0.006 0-0.010 0-0.006 0-0.010 0-0.006 0-0.010 0-0.006 0-0.010 0-0.006 0-0.010 0-0.006 0-0.010c0-0.003 0-0.006 0-0.010s0-0.006 0-0.010c0-0.003 0-0.006 0-0.010s0-0.006 0-0.010c0-0.003 0-0.006 0-0.010s0-0.006 0-0.010c0-0.003 0-0.006 0-0.010s0-0.006 0-0.010c0-0.003 0-0.006 0-0.010s0-0.006 0-0.010c0-0.003 0-0.006 0-0.010s0-0.006 0-0.010c0-0.003 0-0.006 0-0.010s0-0.006 0-0.010c0-0.003 0-0.006 0-0.010s0-0.006 0-0.010c0-0.003 0-0.006 0-0.010s0-0.006 0-0.010c0-0.003 0-0.006 0-0.010s0-0.006 0-0.010c0-0.003 0-0.006 0-0.010s0-0.006 0-0.010c0-0.003 0-0.006 0-0.010s0-0.006 0-0.010c0-0.003 0-0.006 0-0.010s0-0.006 0-0.010c0-0.003 0-0.006 0-0.010s0-0.006 0-0.010c0-0.003 0-0.006 0-0.010s0-0.006 0-0.010c0-0.003 0-0.006 0-0.010s0-0.006 0-0.010c0-0.003 0-0.006 0-0.010s0-0.006 0-0.010c0-0.003 0-0.006 0-0.010s0-0.006 0-0.010c0-0.003 0-0.006 0-0.010s0-0.006 0-0.010c0-0.003 0-0.006 0-0.010s0-0.006 0-0.010c0-0.003 0-0.006 0-0.010s0-0.006 0-0.010c0-0.003 0-0.006 0-0.010s0-0.006 0-0.010c0-0.003 0-0.006 0-0.010s0-0.006 0-0.010c0-0.068 0-0.008 0-0.077 0-0.003 0-0.006 0-0.010s0-0.006 0-0.010c0-0.003 0-0.006 0-0.010s0-0.006 0-0.010c0-0.003 0-0.006 0-0.010s0-0.006 0-0.010c0-0.003 0-0.006 0-0.010s0-0.006 0-0.010c0-0.003 0-0.006 0-0.010s0-0.006 0-0.010c0-0.003 0-0.006 0-0.010s0-0.006 0-0.010c0-0.003 0-0.006 0-0.010s0-0.006 0-0.010c0-0.003 0-0.006 0-0.010s0-0.006 0-0.010c0-0.003 0-0.006 0-0.010s0-0.006 0-0.010c0-0.003 0-0.006 0-0.010s0-0.006 0-0.010c0-0.003 0-0.006 0-0.010s0-0.006 0-0.010c0-0.003 0-0.006 0-0.010s0-0.006 0-0.010c0-0.003 0-0.006 0-0.010s0-0.006 0-0.010c0-0.003 0-0.006 0-0.010s0-0.006 0-0.010c0-0.003 0-0.006 0-0.010s0-0.006 0-0.010c0-0.003 0-0.006 0-0.010s0-0.006 0-0.010c0-0.003 0-0.006 0-0.010s0-0.006 0-0.010c0-0.003 0-0.006 0-0.010s0-0.006 0-0.010c0-0.003 0-0.006 0-0.010s0-0.006 0-0.010c0-0.003 0-0.006 0-0.010s0-0.006 0-0.010c0-0.003 0-0.006 0-0.010s0-0.006 0-0.010c0-0.003 0-0.006 0-0.010s0-0.006 0-0.010c0-0.003 0-0.006 0-0.010s0-0.006 0-0.010c0-0.003 0-0.006 0-0.010s0-0.006 0-0.010c0-0.003 0-0.006 0-0.010s0-0.006 0-0.010c0-0.003 0-0.006 0-0.010s0-0.006 0-0.010c0-0.003 0-0.006 0-0.010s0-0.006 0-0.010c0-0.003 0-0.006 0-0.010s0-0.006 0-0.010 0-0.006 0-0.010 0-0.006 0-0.010 0-0.006 0-0.010 0-0.006 0-0.010 0-0.006 0-0.010 0-0.006 0-0.010 0-0.006 0-0.010 0-0.006 0-0.010 0-0.006 0-0.010 0-0.006 0-0.010 0-0.006 0-0.010 0-0.006 0-0.010 0-0.006 0-0.010 0-0.006 0-0.010 0-0.006 0-0.010 0-0.006 0-0.010 0-0.006 0-0.010 0-0.006 0-0.010 0-0.006 0-0.010 0-0.006 0-0.010 0-0.006 0-0.010 0-0.006 0-0.010 0-0.006 0-0.010 0-0.006 0-0.010 0-0.006 0-0.010 0-0.006 0-0.010 0-0.006 0-0.010 0-0.006 0-0.010 0-0.006 0-0.010 0-0.006 0-0.010 0-0.006 0-0.010 0-0.006 0-0.010 0-0.006 0-0.010 0-0.006 0-0.010 0-0.006 0-0.010 0-0.006 0-0.010 0-0.006 0-0.010 0-0.006 0-0.010 0-0.006 0-0.010 0-0.006 0-0.010 0-0.006 0-0.010 0-0.006 0-0.010 0-0.006 0-0.010 0-0.006 0-0.010 0-0.006 0-0.010 0-0.006 0-0.010 0-0.006 0-0.010 0-0.006 0-0.010c0-0.819 0-1.638 0-2.457h-1.6zM22.397 22.2c0 0.011-0.002-0.030 0.014-0.094 0.017-0.071 0.062-0.197 0.177-0.314 0.116-0.118 0.245-0.167 0.324-0.186 0.038-0.009 0.067-0.012 0.083-0.014 0.008-0.001 0.015-0.001 0.019-0.001s0.006-0 0.006-0l-0.019 1.6c0.083 0.001 0.446 0.011 0.728-0.277 0.275-0.279 0.268-0.634 0.268-0.715h-1.6zM23.017 21.591c-0.823-0.007-1.645-0.007-2.465 0l0.014 1.6c0.811-0.007 1.623-0.007 2.438 0l0.014-1.6zM20.558 21.591c0.001 0 0.013 0 0.031 0.002s0.050 0.006 0.091 0.017c0.087 0.024 0.22 0.081 0.336 0.21 0.111 0.125 0.149 0.253 0.162 0.317 0.012 0.058 0.010 0.094 0.010 0.078h-1.6c0 0.040-0.018 0.388 0.234 0.67 0.276 0.31 0.65 0.306 0.737 0.306v-1.6zM21.188 22.216c0-0.003 0-0.006 0-0.009s0-0.006 0-0.009c0-0.003 0-0.006 0-0.009s0-0.006 0-0.009c0-0.003 0-0.006 0-0.009s0-0.006 0-0.009c0-0.003 0-0.006 0-0.009s0-0.006 0-0.009c0-0.003 0-0.006 0-0.009s0-0.006 0-0.009c0-0.003 0-0.006 0-0.009s0-0.006 0-0.009c0-0.003 0-0.006 0-0.009s0-0.006 0-0.009c0-0.003 0-0.006 0-0.009s0-0.006 0-0.009c0-0.003 0-0.006 0-0.009s0-0.006 0-0.009c0-0.003 0-0.006 0-0.009s0-0.006 0-0.009c0-0.003 0-0.006 0-0.009s0-0.006 0-0.009c0-0.003 0-0.006 0-0.009s0-0.006 0-0.009c0-0.003 0-0.006 0-0.009s0-0.006 0-0.009c0-0.003 0-0.006 0-0.009s0-0.006 0-0.009c0-0.003 0-0.006 0-0.009s0-0.006 0-0.009 0-0.006 0-0.009 0-0.006 0-0.009 0-0.006 0-0.009 0-0.006 0-0.009 0-0.006 0-0.009 0-0.006 0-0.009 0-0.006 0-0.009 0-0.006 0-0.009 0-0.006 0-0.009 0-0.006 0-0.009 0-0.006 0-0.009 0-0.006 0-0.009 0-0.006 0-0.009 0-0.006 0-0.009c0-0.003 0-0.006 0-0.009s0-0.006 0-0.009c0-0.003 0-0.006 0-0.009s0-0.006 0-0.009c0-0.003 0-0.006 0-0.009s0-0.006 0-0.009c0-0.003 0-0.006 0-0.009s0-0.006 0-0.009c0-0.003 0-0.006 0-0.009s0-0.006 0-0.009c0-0.003 0-0.006 0-0.009s0-0.006 0-0.009c0-0.003 0-0.006 0-0.009s0-0.006 0-0.009c0-0.003 0-0.006 0-0.009s0-0.006 0-0.009 0-0.006 0-0.009 0-0.006 0-0.009 0-0.006 0-0.009 0-0.006 0-0.009 0-0.006 0-0.009 0-0.006 0-0.009 0-0.006 0-0.009 0-0.006 0-0.009 0-0.006 0-0.009 0-0.006 0-0.009 0-0.006 0-0.009 0-0.006 0-0.009 0-0.006 0-0.009 0-0.006 0-0.009c0-0.003 0-0.006 0-0.009s0-0.006 0-0.009c0-0.003 0-0.006 0-0.009s0-0.006 0-0.009c0-0.003 0-0.006 0-0.009s0-0.006 0-0.009c0-0.003 0-0.006 0-0.009s0-0.006 0-0.009c0-0.003 0-0.006 0-0.009s0-0.006 0-0.009c0-0.003 0-0.006 0-0.009s0-0.006 0-0.009c0-0.003 0-0.006 0-0.009s0-0.006 0-0.009c0-0.003 0-0.006 0-0.009s0-0.006 0-0.009 0-0.006 0-0.009 0-0.006 0-0.009 0-0.006 0-0.009 0-0.006 0-0.009 0-0.006 0-0.009 0-0.006 0-0.009c0-0.003 0-0.006 0-0.009s0-0.006 0-0.009c0-0.003 0-0.006 0-0.009s0-0.006 0-0.009c0-0.003 0-0.006 0-0.009s0-0.006 0-0.009c0-0.003 0-0.006 0-0.009s0-0.006 0-0.009c0-0.003 0-0.006 0-0.009s0-0.006 0-0.009c0-0.003 0-0.006 0-0.009s0-0.006 0-0.009c0-0.003 0-0.006 0-0.009s0-0.006 0-0.009c0-0.003 0-0.006 0-0.009s0-0.006 0-0.009 0-0.006 0-0.009 0-0.006 0-0.009 0-0.006 0-0.009 0-0.006 0-0.009 0-0.006 0-0.009 0-0.006 0-0.009 0-0.006 0-0.009 0-0.006 0-0.009 0-0.006 0-0.009 0-0.006 0-0.009 0-0.006 0-0.009 0-0.006 0-0.009 0-0.006 0-0.009 0-0.006 0-0.009c0-0.003 0-0.006 0-0.009s0-0.006 0-0.009c0-0.003 0-0.006 0-0.009s0-0.006 0-0.009c0-0.003 0-0.006 0-0.009s0-0.006 0-0.009c0-0.003 0-0.006 0-0.009s0-0.006 0-0.009c0-0.003 0-0.006 0-0.009s0-0.006 0-0.009c0-0.003 0-0.006 0-0.009s0-0.006 0-0.009c0-0.003 0-0.006 0-0.009s0-0.006 0-0.009c0-0.003 0-0.006 0-0.009s0-0.006 0-0.009 0-0.006 0-0.009 0-0.006 0-0.009 0-0.006 0-0.009 0-0.006 0-0.009 0-0.006 0-0.009 0-0.006 0-0.009 0-0.006 0-0.009 0-0.006 0-0.009 0-0.006 0-0.009 0-0.006 0-0.009 0-0.006 0-0.009 0-0.006 0-0.009 0-0.006 0-0.009 0-0.006 0-0.009c0-0.003 0-0.006 0-0.009s0-0.006 0-0.009c0-0.003 0-0.006 0-0.009s0-0.006 0-0.009c0-0.003 0-0.006 0-0.009s0-0.006 0-0.009c0-0.003 0-0.006 0-0.009s0-0.006 0-0.009c0-0.003 0-0.006 0-0.009s0-0.006 0-0.009c0-0.003 0-0.006 0-0.009s0-0.006 0-0.009c0-0.003 0-0.006 0-0.009s0-0.006 0-0.009c0-0.003 0-0.006 0-0.009s0-0.006 0-0.009 0-0.006 0-0.009 0-0.006 0-0.009 0-0.006 0-0.009 0-0.006 0-0.009 0-0.006 0-0.009 0-0.006 0-0.009 0-0.006 0-0.009 0-0.006 0-0.009 0-0.006 0-0.009 0-0.006 0-0.009 0-0.006 0-0.009 0-0.006 0-0.009 0-0.006 0-0.009 0-0.006 0-0.009c0-0.003 0-0.006 0-0.009s0-0.006 0-0.009c0-0.003 0-0.006 0-0.009s0-0.006 0-0.009c0-0.003 0-0.006 0-0.009s0-0.006 0-0.009c0-0.003 0-0.006 0-0.009s0-0.006 0-0.009c0-0.003 0-0.006 0-0.009s0-0.006 0-0.009c0-0.003 0-0.006 0-0.009s0-0.006 0-0.009c0-0.003 0-0.006 0-0.009s0-0.006 0-0.009c0-0.003 0-0.006 0-0.009s0-0.006 0-0.009 0-0.006 0-0.009 0-0.006 0-0.009 0-0.006 0-0.009 0-0.006 0-0.009 0-0.006 0-0.009 0-0.006 0-0.009 0-0.006 0-0.009 0-0.006 0-0.009 0-0.006 0-0.009 0-0.006 0-0.009 0-0.006 0-0.009 0-0.006 0-0.009 0-0.006 0-0.009 0-0.006 0-0.009c0-0.003 0-0.006 0-0.009s0-0.006 0-0.009c0-0.003 0-0.006 0-0.009s0-0.006 0-0.009c0-0.003 0-0.006 0-0.009s0-0.006 0-0.009c0-0.003 0-0.006 0-0.009s0-0.006 0-0.009c0-0.003 0-0.006 0-0.009s0-0.006 0-0.009c0-0.003 0-0.006 0-0.009s0-0.006 0-0.009c0-0.003 0-0.006 0-0.009s0-0.006 0-0.009c0-0.003 0-0.006 0-0.009s0-0.006 0-0.009 0-0.006 0-0.009 0-0.006 0-0.009 0-0.006 0-0.009 0-0.006 0-0.009 0-0.006 0-0.009 0-0.006 0-0.009 0-0.006 0-0.009 0-0.006 0-0.009 0-0.006 0-0.009 0-0.006 0-0.009 0-0.006 0-0.009 0-0.006 0-0.009 0-0.006 0-0.009 0-0.006 0-0.009c0-0.003 0-0.006 0-0.009s0-0.006 0-0.009c0-0.003 0-0.006 0-0.009s0-0.006 0-0.009c0-0.003 0-0.006 0-0.009s0-0.006 0-0.009c0-0.003 0-0.006 0-0.009s0-0.006 0-0.009c0-0.003 0-0.006 0-0.009s0-0.006 0-0.009c0-0.003 0-0.006 0-0.009s0-0.006 0-0.009c0-0.003 0-0.006 0-0.009s0-0.006 0-0.009c0-0.003 0-0.006 0-0.009s0-0.006 0-0.009 0-0.006 0-0.009 0-0.006 0-0.009 0-0.006 0-0.009 0-0.006 0-0.009 0-0.006 0-0.009 0-0.006 0-0.009 0-0.006 0-0.009 0-0.006 0-0.009 0-0.006 0-0.009 0-0.006 0-0.009 0-0.006 0-0.009 0-0.006 0-0.009 0-0.006 0-0.009 0-0.006 0-0.009c0-0.003 0-0.006 0-0.009s0-0.006 0-0.009c0-0.003 0-0.006 0-0.009s0-0.006 0-0.009c0-0.003 0-0.006 0-0.009s0-0.006 0-0.009c0-0.003 0-0.006 0-0.009s0-0.006 0-0.009c0-0.003 0-0.006 0-0.009s0-0.006 0-0.009c0-0.003 0-0.006 0-0.009s0-0.006 0-0.009c0-0.003 0-0.006 0-0.009s0-0.006 0-0.009c0-0.003 0-0.006 0-0.009s0-0.006 0-0.009 0-0.006 0-0.009 0-0.006 0-0.009 0-0.006 0-0.009 0-0.006 0-0.009 0-0.006 0-0.009 0-0.006 0-0.009 0-0.006 0-0.009 0-0.006 0-0.009 0-0.006 0-0.009 0-0.006 0-0.009 0-0.006 0-0.009 0-0.006 0-0.009 0-0.006 0-0.009 0-0.006 0-0.009c0-0.003 0-0.006 0-0.009s0-0.006 0-0.009c0-0.003 0-0.006 0-0.009s0-0.006 0-0.009c0-0.003 0-0.006 0-0.009s0-0.006 0-0.009c0-0.003 0-0.006 0-0.009s0-0.006 0-0.009c0-0.003 0-0.006 0-0.009s0-0.006 0-0.009c0-0.003 0-0.006 0-0.009s0-0.006 0-0.009c0-0.003 0-0.006 0-0.009s0-0.006 0-0.009c0-0.003 0-0.006 0-0.009s0-0.006 0-0.009 0-0.006 0-0.009 0-0.006 0-0.009 0-0.006 0-0.009 0-0.006 0-0.009 0-0.006 0-0.009 0-0.006 0-0.009 0-0.006 0-0.009 0-0.006 0-0.009 0-0.006 0-0.009 0-0.006 0-0.009 0-0.006 0-0.009 0-0.006 0-0.009 0-0.006 0-0.009 0-0.006 0-0.009c0-0.003 0-0.006 0-0.009s0-0.006 0-0.009c0-0.003 0-0.006 0-0.009s0-0.006 0-0.009c0-0.003 0-0.006 0-0.009s0-0.006 0-0.009c0-0.003 0-0.006 0-0.009s0-0.006 0-0.009c0-0.003 0-0.006 0-0.009s0-0.006 0-0.009c0-0.003 0-0.006 0-0.009s0-0.006 0-0.009c0-0.003 0-0.006 0-0.009s0-0.006 0-0.009c0-0.003 0-0.006 0-0.009s0-0.006 0-0.009 0-0.006 0-0.009 0-0.006 0-0.009 0-0.006 0-0.009 0-0.006 0-0.009 0-0.006 0-0.009 0-0.006 0-0.009 0-0.006 0-0.009 0-0.006 0-0.009 0-0.006 0-0.009 0-0.006 0-0.009 0-0.006 0-0.009 0-0.006 0-0.009 0-0.006 0-0.009 0-0.006 0-0.009c0-0.003 0-0.006 0-0.009s0-0.006 0-0.009c0-0.003 0-0.006 0-0.009s0-0.006 0-0.009c0-0.003 0-0.006 0-0.009s0-0.006 0-0.009c0-0.003 0-0.006 0-0.009s0-0.006 0-0.009c0-0.003 0-0.006 0-0.009s0-0.006 0-0.009c0-0.003 0-0.006 0-0.009s0-0.006 0-0.009c0-0.003 0-0.006 0-0.009s0-0.006 0-0.009c0-0.003 0-0.006 0-0.009s0-0.006 0-0.009 0-0.006 0-0.009 0-0.006 0-0.009 0-0.006 0-0.009 0-0.006 0-0.009 0-0.006 0-0.009 0-0.006 0-0.009 0-0.006 0-0.009 0-0.006 0-0.009 0-0.006 0-0.009 0-0.006 0-0.009 0-0.006 0-0.009 0-0.006 0-0.009 0-0.006 0-0.009 0-0.006 0-0.009c0-0.003 0-0.006 0-0.009s0-0.006 0-0.009c0-0.003 0-0.006 0-0.009s0-0.006 0-0.009c0-0.003 0-0.006 0-0.009s0-0.006 0-0.009c0-0.003 0-0.006 0-0.009s0-0.006 0-0.009 0-0.006 0-0.009 0-0.006 0-0.009 0-0.006 0-0.009 0-0.006 0-0.009 0-0.006 0-0.009 0-0.006 0-0.009 0-0.006 0-0.009 0-0.006 0-0.009 0-0.006 0-0.009 0-0.006 0-0.009 0-0.006 0-0.009 0-0.006 0-0.009 0-0.006 0-0.009 0-0.006 0-0.009c0-0.003 0-0.006 0-0.009s0-0.006 0-0.009c0-0.003 0-0.006 0-0.009s0-0.006 0-0.009c0-0.003 0-0.006 0-0.009s0-0.006 0-0.009c0-0.003 0-0.006 0-0.009s0-0.006 0-0.009c0-0.003 0-0.006 0-0.009s0-0.006 0-0.009c0-0.003 0-0.006 0-0.009s0-0.006 0-0.009c0-0.003 0-0.006 0-0.009s0-0.006 0-0.009c0-0.003 0-0.006 0-0.009s0-0.006 0-0.009 0-0.006 0-0.009 0-0.006 0-0.009 0-0.006 0-0.009 0-0.006 0-0.009 0-0.006 0-0.009 0-0.006 0-0.009 0-0.006 0-0.009 0-0.006 0-0.009 0-0.006 0-0.009 0-0.006 0-0.009 0-0.006 0-0.009 0-0.006 0-0.009 0-0.006 0-0.009 0-0.006 0-0.009c0-0.003 0-0.006 0-0.009s0-0.006 0-0.009c0-0.003 0-0.006 0-0.009s0-0.006 0-0.009c0-0.003 0-0.006 0-0.009s0-0.006 0-0.009c0-0.003 0-0.006 0-0.009s0-0.006 0-0.009c0-0.003 0-0.006 0-0.009s0-0.006 0-0.009c0-0.003 0-0.006 0-0.009s0-0.006 0-0.009c0-0.003 0-0.006 0-0.009s0-0.006 0-0.009c0-0.003 0-0.006 0-0.009s0-0.006 0-0.009 0-0.006 0-0.009 0-0.006 0-0.009 0-0.006 0-0.009 0-0.006 0-0.009 0-0.006 0-0.009 0-0.006 0-0.009 0-0.006 0-0.009 0-0.006 0-0.009 0-0.006 0-0.009 0-0.006 0-0.009 0-0.006 0-0.009 0-0.006 0-0.009 0-0.006 0-0.009 0-0.006 0-0.009c0-0.003 0-0.006 0-0.009s0-0.006 0-0.009c0-0.003 0-0.006 0-0.009s0-0.006 0-0.009c0-0.003 0-0.006 0-0.009s0-0.006 0-0.009c0-0.003 0-0.006 0-0.009s0-0.006 0-0.009c0-0.003 0-0.006 0-0.009s0-0.006 0-0.009c0-0.003 0-0.006 0-0.009s0-0.006 0-0.009c0-0.003 0-0.006 0-0.009s0-0.006 0-0.009c0-0.003 0-0.006 0-0.009s0-0.006 0-0.009 0-0.006 0-0.009 0-0.006 0-0.009 0-0.006 0-0.009 0-0.006 0-0.009 0-0.006 0-0.009 0-0.006 0-0.009 0-0.006 0-0.009 0-0.006 0-0.009 0-0.006 0-0.009 0-0.006 0-0.009 0-0.006 0-0.009 0-0.006 0-0.009 0-0.006 0-0.009 0-0.006 0-0.009c0-0.003 0-0.006 0-0.009s0-0.006 0-0.009c0-0.003 0-0.006 0-0.009s0-0.006 0-0.009h-1.6c0 0.003 0 0.006 0 0.009s0 0.006 0 0.009c0 0.003 0 0.006 0 0.009s0 0.006 0 0.009c0 0.003 0 0.006 0 0.009s0 0.006 0 0.009c0 0.003 0 0.006 0 0.009s0 0.006 0 0.009c0 0.003 0 0.006 0 0.009s0 0.006 0 0.009c0 0.003 0 0.006 0 0.009s0 0.006 0 0.009 0 0.006 0 0.009 0 0.006 0 0.009 0 0.006 0 0.009 0 0.006 0 0.009 0 0.006 0 0.009 0 0.006 0 0.009 0 0.006 0 0.009 0 0.006 0 0.009 0 0.006 0 0.009 0 0.006 0 0.009 0 0.006 0 0.009 0 0.006 0 0.009 0 0.006 0 0.009 0 0.006 0 0.009c0 0.003 0 0.006 0 0.009s0 0.006 0 0.009c0 0.003 0 0.006 0 0.009s0 0.006 0 0.009c0 0.003 0 0.006 0 0.009s0 0.006 0 0.009c0 0.003 0 0.006 0 0.009s0 0.006 0 0.009c0 0.003 0 0.006 0 0.009s0 0.006 0 0.009c0 0.003 0 0.006 0 0.009s0 0.006 0 0.009c0 0.003 0 0.006 0 0.009s0 0.006 0 0.009c0 0.003 0 0.006 0 0.009s0 0.006 0 0.009 0 0.006 0 0.009 0 0.006 0 0.009 0 0.006 0 0.009 0 0.006 0 0.009 0 0.006 0 0.009 0 0.006 0 0.009 0 0.006 0 0.009 0 0.006 0 0.009 0 0.006 0 0.009 0 0.006 0 0.009 0 0.006 0 0.009 0 0.006 0 0.009 0 0.006 0 0.009 0 0.006 0 0.009c0 0.003 0 0.006 0 0.009s0 0.006 0 0.009c0 0.003 0 0.006 0 0.009s0 0.006 0 0.009c0 0.003 0 0.006 0 0.009s0 0.006 0 0.009c0 0.003 0 0.006 0 0.009s0 0.006 0 0.009c0 0.003 0 0.006 0 0.009s0 0.006 0 0.009c0 0.003 0 0.006 0 0.009s0 0.006 0 0.009c0 0.003 0 0.006 0 0.009s0 0.006 0 0.009c0 0.003 0 0.006 0 0.009s0 0.006 0 0.009 0 0.006 0 0.009 0 0.006 0 0.009 0 0.006 0 0.009 0 0.006 0 0.009 0 0.006 0 0.009 0 0.006 0 0.009 0 0.006 0 0.009 0 0.006 0 0.009 0 0.006 0 0.009 0 0.006 0 0.009 0 0.006 0 0.009 0 0.006 0 0.009 0 0.006 0 0.009 0 0.006 0 0.009c0 0.003 0 0.006 0 0.009s0 0.006 0 0.009c0 0.003 0 0.006 0 0.009s0 0.006 0 0.009c0 0.003 0 0.006 0 0.009s0 0.006 0 0.009c0 0.003 0 0.006 0 0.009s0 0.006 0 0.009c0 0.003 0 0.006 0 0.009s0 0.006 0 0.009c0 0.003 0 0.006 0 0.009s0 0.006 0 0.009c0 0.003 0 0.006 0 0.009s0 0.006 0 0.009c0 0.003 0 0.006 0 0.009s0 0.006 0 0.009 0 0.006 0 0.009 0 0.006 0 0.009 0 0.006 0 0.009 0 0.006 0 0.009 0 0.006 0 0.009 0 0.006 0 0.009 0 0.006 0 0.009 0 0.006 0 0.009 0 0.006 0 0.009 0 0.006 0 0.009 0 0.006 0 0.009 0 0.006 0 0.009 0 0.006 0 0.009 0 0.006 0 0.009c0 0.003 0 0.006 0 0.009s0 0.006 0 0.009c0 0.003 0 0.006 0 0.009s0 0.006 0 0.009c0 0.003 0 0.006 0 0.009s0 0.006 0 0.009c0 0.003 0 0.006 0 0.009s0 0.006 0 0.009c0 0.003 0 0.006 0 0.009s0 0.006 0 0.009c0 0.003 0 0.006 0 0.009s0 0.006 0 0.009c0 0.003 0 0.006 0 0.009s0 0.006 0 0.009c0 0.003 0 0.006 0 0.009s0 0.006 0 0.009 0 0.006 0 0.009 0 0.006 0 0.009 0 0.006 0 0.009 0 0.006 0 0.009 0 0.006 0 0.009 0 0.006 0 0.009 0 0.006 0 0.009 0 0.006 0 0.009 0 0.006 0 0.009 0 0.006 0 0.009 0 0.006 0 0.009 0 0.006 0 0.009 0 0.006 0 0.009 0 0.006 0 0.009c0 0.003 0 0.006 0 0.009s0 0.006 0 0.009c0 0.003 0 0.006 0 0.009s0 0.006 0 0.009c0 0.003 0 0.006 0 0.009s0 0.006 0 0.009c0 0.003 0 0.006 0 0.009s0 0.006 0 0.009c0 0.003 0 0.006 0 0.009s0 0.006 0 0.009c0 0.003 0 0.006 0 0.009s0 0.006 0 0.009c0 0.003 0 0.006 0 0.009s0 0.006 0 0.009c0 0.003 0 0.006 0 0.009s0 0.006 0 0.009 0 0.006 0 0.009 0 0.006 0 0.009 0 0.006 0 0.009 0 0.006 0 0.009 0 0.006 0 0.009 0 0.006 0 0.009 0 0.006 0 0.009 0 0.006 0 0.009 0 0.006 0 0.009 0 0.006 0 0.009 0 0.006 0 0.009 0 0.006 0 0.009 0 0.006 0 0.009 0 0.006 0 0.009c0 0.003 0 0.006 0 0.009s0 0.006 0 0.009c0 0.003 0 0.006 0 0.009s0 0.006 0 0.009c0 0.003 0 0.006 0 0.009s0 0.006 0 0.009c0 0.003 0 0.006 0 0.009s0 0.006 0 0.009c0 0.003 0 0.006 0 0.009s0 0.006 0 0.009c0 0.003 0 0.006 0 0.009s0 0.006 0 0.009c0 0.003 0 0.006 0 0.009s0 0.006 0 0.009c0 0.003 0 0.006 0 0.009s0 0.006 0 0.009 0 0.006 0 0.009 0 0.006 0 0.009 0 0.006 0 0.009 0 0.006 0 0.009 0 0.006 0 0.009 0 0.006 0 0.009 0 0.006 0 0.009 0 0.006 0 0.009 0 0.006 0 0.009 0 0.006 0 0.009 0 0.006 0 0.009 0 0.006 0 0.009 0 0.006 0 0.009 0 0.006 0 0.009c0 0.003 0 0.006 0 0.009s0 0.006 0 0.009c0 0.003 0 0.006 0 0.009s0 0.006 0 0.009c0 0.003 0 0.006 0 0.009s0 0.006 0 0.009c0 0.003 0 0.006 0 0.009s0 0.006 0 0.009c0 0.003 0 0.006 0 0.009s0 0.006 0 0.009c0 0.003 0 0.006 0 0.009s0 0.006 0 0.009c0 0.003 0 0.006 0 0.009s0 0.006 0 0.009c0 0.003 0 0.006 0 0.009s0 0.006 0 0.009 0 0.006 0 0.009 0 0.006 0 0.009 0 0.006 0 0.009 0 0.006 0 0.009 0 0.006 0 0.009 0 0.006 0 0.009 0 0.006 0 0.009 0 0.006 0 0.009 0 0.006 0 0.009 0 0.006 0 0.009 0 0.006 0 0.009 0 0.006 0 0.009 0 0.006 0 0.009 0 0.006 0 0.009c0 0.003 0 0.006 0 0.009s0 0.006 0 0.009c0 0.003 0 0.006 0 0.009s0 0.006 0 0.009c0 0.003 0 0.006 0 0.009s0 0.006 0 0.009c0 0.003 0 0.006 0 0.009s0 0.006 0 0.009c0 0.003 0 0.006 0 0.009s0 0.006 0 0.009c0 0.003 0 0.006 0 0.009s0 0.006 0 0.009c0 0.003 0 0.006 0 0.009s0 0.006 0 0.009c0 0.003 0 0.006 0 0.009s0 0.006 0 0.009 0 0.006 0 0.009 0 0.006 0 0.009 0 0.006 0 0.009 0 0.006 0 0.009 0 0.006 0 0.009 0 0.006 0 0.009 0 0.006 0 0.009 0 0.006 0 0.009 0 0.006 0 0.009 0 0.006 0 0.009 0 0.006 0 0.009 0 0.006 0 0.009 0 0.006 0 0.009 0 0.006 0 0.009c0 0.003 0 0.006 0 0.009s0 0.006 0 0.009c0 0.003 0 0.006 0 0.009s0 0.006 0 0.009c0 0.003 0 0.006 0 0.009s0 0.006 0 0.009c0 0.003 0 0.006 0 0.009s0 0.006 0 0.009c0 0.003 0 0.006 0 0.009s0 0.006 0 0.009c0 0.003 0 0.006 0 0.009s0 0.006 0 0.009c0 0.003 0 0.006 0 0.009s0 0.006 0 0.009c0 0.003 0 0.006 0 0.009s0 0.006 0 0.009 0 0.006 0 0.009 0 0.006 0 0.009 0 0.006 0 0.009 0 0.006 0 0.009 0 0.006 0 0.009 0 0.006 0 0.009 0 0.006 0 0.009 0 0.006 0 0.009 0 0.006 0 0.009 0 0.006 0 0.009 0 0.006 0 0.009 0 0.006 0 0.009 0 0.006 0 0.009 0 0.006 0 0.009c0 0.003 0 0.006 0 0.009s0 0.006 0 0.009c0 0.003 0 0.006 0 0.009s0 0.006 0 0.009c0 0.003 0 0.006 0 0.009s0 0.006 0 0.009c0 0.003 0 0.006 0 0.009s0 0.006 0 0.009c0 0.003 0 0.006 0 0.009s0 0.006 0 0.009c0 0.003 0 0.006 0 0.009s0 0.006 0 0.009c0 0.003 0 0.006 0 0.009s0 0.006 0 0.009c0 0.003 0 0.006 0 0.009s0 0.006 0 0.009 0 0.006 0 0.009 0 0.006 0 0.009 0 0.006 0 0.009 0 0.006 0 0.009 0 0.006 0 0.009 0 0.006 0 0.009 0 0.006 0 0.009 0 0.006 0 0.009 0 0.006 0 0.009 0 0.006 0 0.009 0 0.006 0 0.009 0 0.006 0 0.009 0 0.006 0 0.009 0 0.006 0 0.009c0 0.003 0 0.006 0 0.009s0 0.006 0 0.009c0 0.003 0 0.006 0 0.009s0 0.006 0 0.009c0 0.003 0 0.006 0 0.009s0 0.006 0 0.009c0 0.003 0 0.006 0 0.009s0 0.006 0 0.009 0 0.006 0 0.009 0 0.006 0 0.009 0 0.006 0 0.009 0 0.006 0 0.009 0 0.006 0 0.009 0 0.006 0 0.009 0 0.006 0 0.009 0 0.006 0 0.009 0 0.006 0 0.009 0 0.006 0 0.009 0 0.006 0 0.009 0 0.006 0 0.009 0 0.006 0 0.009 0 0.006 0 0.009c0 0.003 0 0.006 0 0.009s0 0.006 0 0.009c0 0.003 0 0.006 0 0.009s0 0.006 0 0.009c0 0.003 0 0.006 0 0.009s0 0.006 0 0.009c0 0.003 0 0.006 0 0.009s0 0.006 0 0.009c0 0.003 0 0.006 0 0.009s0 0.006 0 0.009c0 0.003 0 0.006 0 0.009s0 0.006 0 0.009c0 0.003 0 0.006 0 0.009s0 0.006 0 0.009c0 0.003 0 0.006 0 0.009s0 0.006 0 0.009 0 0.006 0 0.009 0 0.006 0 0.009 0 0.006 0 0.009 0 0.006 0 0.009 0 0.006 0 0.009 0 0.006 0 0.009 0 0.006 0 0.009 0 0.006 0 0.009 0 0.006 0 0.009 0 0.006 0 0.009 0 0.006 0 0.009 0 0.006 0 0.009 0 0.006 0 0.009 0 0.006 0 0.009c0 0.003 0 0.006 0 0.009s0 0.006 0 0.009c0 0.003 0 0.006 0 0.009s0 0.006 0 0.009c0 0.003 0 0.006 0 0.009s0 0.006 0 0.009c0 0.003 0 0.006 0 0.009s0 0.006 0 0.009c0 0.003 0 0.006 0 0.009s0 0.006 0 0.009c0 0.003 0 0.006 0 0.009s0 0.006 0 0.009c0 0.003 0 0.006 0 0.009s0 0.006 0 0.009c0 0.003 0 0.006 0 0.009s0 0.006 0 0.009 0 0.006 0 0.009 0 0.006 0 0.009 0 0.006 0 0.009 0 0.006 0 0.009 0 0.006 0 0.009 0 0.006 0 0.009 0 0.006 0 0.009 0 0.006 0 0.009 0 0.006 0 0.009 0 0.006 0 0.009 0 0.006 0 0.009 0 0.006 0 0.009 0 0.006 0 0.009 0 0.006 0 0.009c0 0.003 0 0.006 0 0.009s0 0.006 0 0.009c0 0.003 0 0.006 0 0.009s0 0.006 0 0.009c0 0.003 0 0.006 0 0.009s0 0.006 0 0.009c0 0.003 0 0.006 0 0.009s0 0.006 0 0.009c0 0.003 0 0.006 0 0.009s0 0.006 0 0.009c0 0.003 0 0.006 0 0.009s0 0.006 0 0.009c0 0.003 0 0.006 0 0.009s0 0.006 0 0.009c0 0.003 0 0.006 0 0.009s0 0.006 0 0.009 0 0.006 0 0.009 0 0.006 0 0.009 0 0.006 0 0.009 0 0.006 0 0.009 0 0.006 0 0.009 0 0.006 0 0.009 0 0.006 0 0.009 0 0.006 0 0.009 0 0.006 0 0.009 0 0.006 0 0.009 0 0.006 0 0.009 0 0.006 0 0.009 0 0.006 0 0.009 0 0.006 0 0.009c0 0.003 0 0.006 0 0.009s0 0.006 0 0.009c0 0.003 0 0.006 0 0.009s0 0.006 0 0.009c0 0.003 0 0.006 0 0.009s0 0.006 0 0.009c0 0.003 0 0.006 0 0.009s0 0.006 0 0.009c0 0.003 0 0.006 0 0.009s0 0.006 0 0.009c0 0.003 0 0.006 0 0.009s0 0.006 0 0.009c0 0.003 0 0.006 0 0.009s0 0.006 0 0.009c0 0.003 0 0.006 0 0.009s0 0.006 0 0.009 0 0.006 0 0.009 0 0.006 0 0.009 0 0.006 0 0.009 0 0.006 0 0.009 0 0.006 0 0.009 0 0.006 0 0.009 0 0.006 0 0.009 0 0.006 0 0.009 0 0.006 0 0.009 0 0.006 0 0.009 0 0.006 0 0.009 0 0.006 0 0.009 0 0.006 0 0.009 0 0.006 0 0.009c0 0.003 0 0.006 0 0.009s0 0.006 0 0.009c0 0.003 0 0.006 0 0.009s0 0.006 0 0.009c0 0.003 0 0.006 0 0.009s0 0.006 0 0.009c0 0.003 0 0.006 0 0.009s0 0.006 0 0.009c0 0.003 0 0.006 0 0.009s0 0.006 0 0.009c0 0.003 0 0.006 0 0.009s0 0.006 0 0.009c0 0.003 0 0.006 0 0.009s0 0.006 0 0.009c0 0.003 0 0.006 0 0.009s0 0.006 0 0.009 0 0.006 0 0.009 0 0.006 0 0.009 0 0.006 0 0.009 0 0.006 0 0.009 0 0.006 0 0.009 0 0.006 0 0.009 0 0.006 0 0.009 0 0.006 0 0.009 0 0.006 0 0.009 0 0.006 0 0.009 0 0.006 0 0.009 0 0.006 0 0.009 0 0.006 0 0.009 0 0.006 0 0.009c0 0.003 0 0.006 0 0.009s0 0.006 0 0.009c0 0.003 0 0.006 0 0.009s0 0.006 0 0.009c0 0.003 0 0.006 0 0.009s0 0.006 0 0.009c0 0.003 0 0.006 0 0.009s0 0.006 0 0.009c0 0.003 0 0.006 0 0.009s0 0.006 0 0.009c0 0.003 0 0.006 0 0.009s0 0.006 0 0.009c0 0.003 0 0.006 0 0.009s0 0.006 0 0.009h1.6zM21.188 17.558c0.010-0.464-0.043-0.927-0.157-1.376l-1.55 0.395c0.079 0.308 0.115 0.627 0.108 0.946l1.6 0.035zM21.026 16.165c-0.135-0.483-0.39-0.917-0.801-1.217-0.412-0.301-0.902-0.41-1.401-0.384l0.083 1.598c0.211-0.011 0.318 0.037 0.374 0.078 0.058 0.042 0.142 0.135 0.203 0.354l1.541-0.429zM18.822 14.564c-0.611 0.033-1.189 0.215-1.632 0.65-0.437 0.429-0.64 1.005-0.715 1.62l1.589 0.191c0.048-0.402 0.159-0.583 0.247-0.67 0.082-0.081 0.241-0.174 0.598-0.194l-0.087-1.598zM16.476 16.831c-0.034 0.276-0.051 0.553-0.050 0.831l1.6-0.004c-0-0.211 0.012-0.421 0.038-0.63l-1.588-0.197zM16.426 17.66c0 1.497 0 3.050 0 4.547h1.6c0-1.497 0-3.050 0-4.547h-1.6zM16.426 22.207c0 0.013-0.002-0.025 0.012-0.086 0.016-0.068 0.057-0.192 0.169-0.31 0.115-0.121 0.244-0.173 0.327-0.194 0.039-0.010 0.070-0.014 0.086-0.015s0.027-0.001 0.027-0.001l-0.019 1.6c0.091 0.001 0.458 0.008 0.74-0.289 0.266-0.28 0.257-0.631 0.257-0.704h-1.6zM17.039 21.6c-0.002 0-0.003 0-0.005 0s-0.003 0-0.005 0c-0.002 0-0.003 0-0.005 0s-0.003 0-0.005 0c-0.002 0-0.003 0-0.005 0s-0.003 0-0.005 0c-0.002 0-0.003 0-0.005 0s-0.003 0-0.005 0c-0.002 0-0.003 0-0.005 0s-0.003 0-0.005 0c-0.002 0-0.003 0-0.005 0s-0.003 0-0.005 0-0.003 0-0.005 0-0.003 0-0.005 0-0.003 0-0.005 0-0.003 0-0.005 0-0.003 0-0.005 0-0.003 0-0.005 0-0.003 0-0.005 0-0.003 0-0.005 0-0.003 0-0.005 0-0.003 0-0.005 0c-0.002 0-0.003 0-0.005 0s-0.003 0-0.005 0c-0.002 0-0.003 0-0.005 0s-0.003 0-0.005 0c-0.002 0-0.003 0-0.005 0s-0.003 0-0.005 0-0.003 0-0.005 0-0.003 0-0.005 0-0.003 0-0.005 0-0.003 0-0.005 0c-0.002 0-0.003 0-0.005 0s-0.003 0-0.005 0c-0.002 0-0.003 0-0.005 0s-0.003 0-0.005 0c-0.002 0-0.003 0-0.005 0s-0.003 0-0.005 0-0.003 0-0.005 0-0.003 0-0.005 0-0.003 0-0.005 0-0.003 0-0.005 0c-0.002 0-0.003 0-0.005 0s-0.003 0-0.005 0c-0.002 0-0.003 0-0.005 0s-0.003 0-0.005 0c-0.002 0-0.003 0-0.005 0s-0.003 0-0.005 0-0.003 0-0.005 0-0.003 0-0.005 0-0.003 0-0.005 0-0.003 0-0.005 0c-0.002 0-0.003 0-0.005 0s-0.003 0-0.005 0c-0.002 0-0.003 0-0.005 0s-0.003 0-0.005 0c-0.002 0-0.003 0-0.005 0s-0.003 0-0.005 0c-0.002 0-0.003 0-0.005 0s-0.003 0-0.005 0c-0.002 0-0.003 0-0.005 0s-0.003 0-0.005 0c-0.002 0-0.003 0-0.005 0s-0.003 0-0.005 0c-0.002 0-0.003 0-0.005 0s-0.003 0-0.005 0c-0.002 0-0.003 0-0.005 0s-0.003 0-0.005 0c-0.002 0-0.003 0-0.005 0s-0.003 0-0.005 0c-0.002 0-0.003 0-0.005 0s-0.003 0-0.005 0-0.003 0-0.005 0-0.003 0-0.005 0-0.003 0-0.005 0-0.003 0-0.005 0-0.003 0-0.005 0-0.003 0-0.005 0-0.003 0-0.005 0-0.003 0-0.005 0c-0.002 0-0.003 0-0.005 0s-0.003 0-0.005 0c-0.002 0-0.003 0-0.005 0s-0.003 0-0.005 0c-0.002 0-0.003 0-0.005 0s-0.003 0-0.005 0c-0.002 0-0.003 0-0.005 0s-0.003 0-0.005 0c-0.002 0-0.003 0-0.005 0s-0.003 0-0.005 0-0.003 0-0.005 0-0.003 0-0.005 0-0.003 0-0.005 0-0.003 0-0.005 0-0.003 0-0.005 0-0.003 0-0.005 0-0.003 0-0.005 0-0.003 0-0.005 0c-0.002 0-0.003 0-0.005 0s-0.003 0-0.005 0c-0.002 0-0.003 0-0.005 0s-0.003 0-0.005 0c-0.002 0-0.003 0-0.005 0s-0.003 0-0.005 0c-0.002 0-0.003 0-0.005 0s-0.003 0-0.005 0c-0.002 0-0.003 0-0.005 0s-0.003 0-0.005 0-0.003 0-0.005 0-0.003 0-0.005 0-0.003 0-0.005 0-0.003 0-0.005 0-0.003 0-0.005 0-0.003 0-0.005 0-0.003 0-0.005 0-0.003 0-0.005 0-0.003 0-0.005 0-0.003 0-0.005 0-0.003 0-0.005 0-0.003 0-0.005 0c-0.002 0-0.003 0-0.005 0s-0.003 0-0.005 0c-0.002 0-0.003 0-0.005 0s-0.003 0-0.005 0c-0.002 0-0.003 0-0.005 0s-0.003 0-0.005 0c-0.002 0-0.003 0-0.005 0s-0.003 0-0.005 0c-0.002 0-0.003 0-0.005 0s-0.003 0-0.005 0c-0.002 0-0.003 0-0.005 0s-0.003 0-0.005 0c-0.002 0-0.003 0-0.005 0s-0.003 0-0.005 0c-0.002 0-0.003 0-0.005 0s-0.003 0-0.005 0c-0.002 0-0.003 0-0.005 0s-0.003 0-0.005 0c-0.002 0-0.003 0-0.005 0s-0.003 0-0.005 0c-0.002 0-0.003 0-0.005 0s-0.003 0-0.005 0-0.003 0-0.005 0-0.003 0-0.005 0-0.003 0-0.005 0-0.003 0-0.005 0-0.003 0-0.005 0-0.003 0-0.005 0-0.003 0-0.005 0-0.003 0-0.005 0-0.003 0-0.005 0-0.003 0-0.005 0-0.003 0-0.005 0-0.003 0-0.005 0-0.003 0-0.005 0-0.003 0-0.005 0-0.003 0-0.005 0-0.003 0-0.005 0-0.003 0-0.005 0-0.003 0-0.005 0-0.003 0-0.005 0-0.003 0-0.005 0-0.003 0-0.005 0-0.003 0-0.005 0-0.003 0-0.005 0-0.003 0-0.005 0-0.003 0-0.005 0-0.003 0-0.005 0-0.003 0-0.005 0-0.003 0-0.005 0-0.003 0-0.005 0-0.003 0-0.005 0-0.003 0-0.005 0-0.003 0-0.005 0-0.003 0-0.005 0-0.003 0-0.005 0-0.003 0-0.005 0-0.003 0-0.005 0-0.003 0-0.005 0-0.003 0-0.005 0-0.003 0-0.005 0-0.003 0-0.005 0-0.003 0-0.005 0-0.003 0-0.005 0-0.003 0-0.005 0-0.003 0-0.005 0-0.003 0-0.005 0-0.003 0-0.005 0-0.003 0-0.005 0-0.003 0-0.005 0-0.003 0-0.005 0-0.003 0-0.005 0-0.003 0-0.005 0-0.003 0-0.005 0-0.003 0-0.005 0-0.003 0-0.005 0-0.003 0-0.005 0-0.003 0-0.005 0-0.003 0-0.005 0-0.003 0-0.005 0-0.003 0-0.005 0-0.003 0-0.005 0-0.003 0-0.005 0-0.003 0-0.005 0c-0.002 0-0.003 0-0.005 0s-0.003 0-0.005 0c-0.002 0-0.003 0-0.005 0s-0.003 0-0.005 0c-0.002 0-0.003 0-0.005 0s-0.003 0-0.005 0c-0.002 0-0.003 0-0.005 0s-0.003 0-0.005 0c-0.002 0-0.003 0-0.005 0s-0.003 0-0.005 0c-0.002 0-0.003 0-0.005 0s-0.003 0-0.005 0c-0.002 0-0.003 0-0.005 0s-0.003 0-0.005 0c-0.002 0-0.003 0-0.005 0s-0.003 0-0.005 0-0.003 0-0.005 0-0.003 0-0.005 0-0.003 0-0.005 0-0.003 0-0.005 0-0.003 0-0.005 0-0.003 0-0.005 0-0.003 0-0.005 0-0.003 0-0.005 0-0.003 0-0.005 0-0.003 0-0.005 0-0.003 0-0.005 0-0.003 0-0.005 0-0.003 0-0.005 0-0.003 0-0.005 0c-0.002 0-0.003 0-0.005 0s-0.003 0-0.005 0c-0.002 0-0.003 0-0.005 0s-0.003 0-0.005 0c-0.002 0-0.003 0-0.005 0s-0.003 0-0.005 0c-0.002 0-0.003 0-0.005 0s-0.003 0-0.005 0c-0.002 0-0.003 0-0.005 0s-0.003 0-0.005 0c-0.002 0-0.003 0-0.005 0s-0.003 0-0.005 0-0.003 0-0.005 0-0.003 0-0.005 0-0.003 0-0.005 0-0.003 0-0.005 0-0.003 0-0.005 0-0.003 0-0.005 0-0.003 0-0.005 0-0.003 0-0.005 0-0.003 0-0.005 0-0.003 0-0.005 0c-0.002 0-0.003 0-0.005 0s-0.003 0-0.005 0c-0.002 0-0.003 0-0.005 0s-0.003 0-0.005 0c-0.002 0-0.003 0-0.005 0s-0.003 0-0.005 0c-0.002 0-0.003 0-0.005 0s-0.003 0-0.005 0c-0.002 0-0.003 0-0.005 0s-0.003 0-0.005 0c-0.002 0-0.003 0-0.005 0s-0.003 0-0.005 0-0.003 0-0.005 0-0.003 0-0.005 0-0.003 0-0.005 0-0.003 0-0.005 0-0.003 0-0.005 0-0.003 0-0.005 0c-0.002 0-0.003 0-0.005 0s-0.003 0-0.005 0c-0.002 0-0.003 0-0.005 0s-0.003 0-0.005 0c-0.002 0-0.003 0-0.005 0s-0.003 0-0.005 0c-0.002 0-0.003 0-0.005 0s-0.003 0-0.005 0-0.003 0-0.005 0-0.003 0-0.005 0-0.003 0-0.005 0-0.003 0-0.005 0-0.003 0-0.005 0-0.003 0-0.005 0c-0.002 0-0.003 0-0.005 0s-0.003 0-0.005 0c-0.002 0-0.003 0-0.005 0s-0.003 0-0.005 0c-0.002 0-0.003 0-0.005 0s-0.003 0-0.005 0c-0.002 0-0.003 0-0.005 0s-0.003 0-0.005 0-0.003 0-0.005 0-0.003 0-0.005 0-0.003 0-0.005 0-0.003 0-0.005 0-0.003 0-0.005 0-0.003 0-0.005 0c-0.002 0-0.003 0-0.005 0s-0.003 0-0.005 0c-0.002 0-0.003 0-0.005 0s-0.003 0-0.005 0c-0.002 0-0.003 0-0.005 0s-0.003 0-0.005 0c-0.002 0-0.003 0-0.005 0s-0.003 0-0.005 0-0.003 0-0.005 0-0.003 0-0.005 0-0.003 0-0.005 0-0.003 0-0.005 0-0.003 0-0.005 0-0.003 0-0.005 0c-0.002 0-0.003 0-0.005 0s-0.003 0-0.005 0c-0.002 0-0.003 0-0.005 0s-0.003 0-0.005 0c-0.002 0-0.003 0-0.005 0s-0.003 0-0.005 0c-0.002 0-0.003 0-0.005 0s-0.003 0-0.005 0-0.003 0-0.005 0-0.003 0-0.005 0-0.003 0-0.005 0-0.003 0-0.005 0-0.003 0-0.005 0-0.003 0-0.005 0c-0.002 0-0.003 0-0.005 0s-0.003 0-0.005 0c-0.002 0-0.003 0-0.005 0s-0.003 0-0.005 0c-0.002 0-0.003 0-0.005 0s-0.003 0-0.005 0c-0.002 0-0.003 0-0.005 0s-0.003 0-0.005 0-0.003 0-0.005 0-0.003 0-0.005 0c-0.002 0-0.003 0-0.005 0s-0.003 0-0.005 0c-0.002 0-0.003 0-0.005 0s-0.003 0-0.005 0c-0.002 0-0.003 0-0.005 0s-0.003 0-0.005 0c-0.002 0-0.003 0-0.005 0s-0.003 0-0.005 0-0.003 0-0.005 0-0.003 0-0.005 0-0.003 0-0.005 0-0.003 0-0.005 0-0.003 0-0.005 0-0.003 0-0.005 0c-0.002 0-0.003 0-0.005 0s-0.003 0-0.005 0c-0.002 0-0.003 0-0.005 0s-0.003 0-0.005 0-0.003 0-0.005 0-0.003 0-0.005 0-0.003 0-0.005 0-0.003 0-0.005 0-0.003 0-0.005 0-0.003 0-0.005 0c-0.002 0-0.003 0-0.005 0s-0.003 0-0.005 0c-0.002 0-0.003 0-0.005 0s-0.003 0-0.005 0c-0.002 0-0.003 0-0.005 0s-0.003 0-0.005 0c-0.002 0-0.003 0-0.005 0s-0.003 0-0.005 0-0.003 0-0.005 0-0.003 0-0.005 0c-0.002 0-0.003 0-0.005 0s-0.003 0-0.005 0c-0.002 0-0.003 0-0.005 0s-0.003 0-0.005 0c-0.002 0-0.003 0-0.005 0s-0.003 0-0.005 0c-0.002 0-0.003 0-0.005 0s-0.003 0-0.005 0-0.003 0-0.005 0-0.003 0-0.005 0c-0.002 0-0.003 0-0.005 0s-0.003 0-0.005 0c-0.002 0-0.003 0-0.005 0s-0.003 0-0.005 0c-0.002 0-0.003 0-0.005 0s-0.003 0-0.005 0c-0.002 0-0.003 0-0.005 0s-0.003 0-0.005 0-0.003 0-0.005 0-0.003 0-0.005 0c-0.002 0-0.003 0-0.005 0s-0.003 0-0.005 0c-0.002 0-0.003 0-0.005 0s-0.003 0-0.005 0c-0.002 0-0.003 0-0.005 0s-0.003 0-0.005 0c-0.002 0-0.003 0-0.005 0s-0.003 0-0.005 0-0.003 0-0.005 0-0.003 0-0.005 0c-0.002 0-0.003 0-0.005 0s-0.003 0-0.005 0c-0.002 0-0.003 0-0.005 0s-0.003 0-0.005 0c-0.002 0-0.003 0-0.005 0s-0.003 0-0.005 0c-0.002 0-0.003 0-0.005 0s-0.003 0-0.005 0-0.003 0-0.005 0-0.003 0-0.005 0c-0.002 0-0.003 0-0.005 0s-0.003 0-0.005 0c-0.002 0-0.003 0-0.005 0s-0.003 0-0.005 0-0.003 0-0.005 0-0.003 0-0.005 0-0.003 0-0.005 0-0.003 0-0.005 0-0.003 0-0.005 0-0.003 0-0.005 0c-0.002 0-0.003 0-0.005 0s-0.003 0-0.005 0c-0.002 0-0.003 0-0.005 0s-0.003 0-0.005 0-0.003 0-0.005 0-0.003 0-0.005 0-0.003 0-0.005 0-0.003 0-0.005 0-0.003 0-0.005 0-0.003 0-0.005 0c-0.002 0-0.003 0-0.005 0s-0.003 0-0.005 0c-0.002 0-0.003 0-0.005 0s-0.003 0-0.005 0-0.003 0-0.005 0-0.003 0-0.005 0c-0.002 0-0.003 0-0.005 0s-0.003 0-0.005 0c-0.002 0-0.003 0-0.005 0s-0.003 0-0.005 0c-0.002 0-0.003 0-0.005 0s-0.003 0-0.005 0c-0.002 0-0.003 0-0.005 0s-0.003 0-0.005 0-0.003 0-0.005 0-0.003 0-0.005 0c-0.002 0-0.003 0-0.005 0s-0.003 0-0.005 0c-0.002 0-0.003 0-0.005 0s-0.003 0-0.005 0c-0.002 0-0.003 0-0.005 0s-0.003 0-0.005 0c-0.002 0-0.003 0-0.005 0s-0.003 0-0.005 0-0.003 0-0.005 0-0.003 0-0.005 0c-0.002 0-0.003 0-0.005 0s-0.003 0-0.005 0c-0.002 0-0.003 0-0.005 0s-0.003 0-0.005 0-0.003 0-0.005 0-0.003 0-0.005 0-0.003 0-0.005 0-0.003 0-0.005 0-0.003 0-0.005 0-0.003 0-0.005 0c-0.002 0-0.003 0-0.005 0s-0.003 0-0.005 0c-0.002 0-0.003 0-0.005 0s-0.003 0-0.005 0-0.003 0-0.005 0-0.003 0-0.005 0c-0.002 0-0.003 0-0.005 0s-0.003 0-0.005 0c-0.002 0-0.003 0-0.005 0s-0.003 0-0.005 0c-0.002 0-0.003 0-0.005 0s-0.003 0-0.005 0c-0.002 0-0.003 0-0.005 0s-0.003 0-0.005 0-0.003 0-0.005 0-0.003 0-0.005 0c-0.002 0-0.003 0-0.005 0s-0.003 0-0.005 0c-0.002 0-0.003 0-0.005 0s-0.003 0-0.005 0-0.003 0-0.005 0-0.003 0-0.005 0-0.003 0-0.005 0-0.003 0-0.005 0-0.003 0-0.005 0-0.003 0-0.005 0c-0.002 0-0.003 0-0.005 0s-0.003 0-0.005 0c-0.002 0-0.003 0-0.005 0s-0.003 0-0.005 0-0.003 0-0.005 0-0.003 0-0.005 0-0.003 0-0.005 0-0.003 0-0.005 0-0.003 0-0.005 0-0.003 0-0.005 0-0.003 0-0.005 0-0.003 0-0.005 0-0.003 0-0.005 0-0.003 0-0.005 0-0.003 0-0.005 0-0.003 0-0.005 0v1.6c0.002 0 0.003 0 0.005 0s0.003 0 0.005 0c0.002 0 0.003 0 0.005 0s0.003 0 0.005 0 0.003 0 0.005 0 0.003 0 0.005 0 0.003 0 0.005 0 0.003 0 0.005 0 0.003 0 0.005 0 0.003 0 0.005 0 0.003 0 0.005 0 0.003 0 0.005 0 0.003 0 0.005 0 0.003 0 0.005 0 0.003 0 0.005 0 0.003 0 0.005 0c0.002 0 0.003 0 0.005 0s0.003 0 0.005 0c0.002 0 0.003 0 0.005 0s0.003 0 0.005 0c0.002 0 0.003 0 0.005 0s0.003 0 0.005 0c0.002 0 0.003 0 0.005 0s0.003 0 0.005 0 0.003 0 0.005 0 0.003 0 0.005 0c0.002 0 0.003 0 0.005 0s0.003 0 0.005 0c0.002 0 0.003 0 0.005 0s0.003 0 0.005 0 0.003 0 0.005 0 0.003 0 0.005 0 0.003 0 0.005 0 0.003 0 0.005 0 0.003 0 0.005 0 0.003 0 0.005 0c0.002 0 0.003 0 0.005 0s0.003 0 0.005 0c0.002 0 0.003 0 0.005 0s0.003 0 0.005 0 0.003 0 0.005 0 0.003 0 0.005 0c0.002 0 0.003 0 0.005 0s0.003 0 0.005 0c0.002 0 0.003 0 0.005 0s0.003 0 0.005 0c0.002 0 0.003 0 0.005 0s0.003 0 0.005 0c0.002 0 0.003 0 0.005 0s0.003 0 0.005 0 0.003 0 0.005 0 0.003 0 0.005 0c0.002 0 0.003 0 0.005 0s0.003 0 0.005 0c0.002 0 0.003 0 0.005 0s0.003 0 0.005 0 0.003 0 0.005 0 0.003 0 0.005 0 0.003 0 0.005 0 0.003 0 0.005 0 0.003 0 0.005 0 0.003 0 0.005 0c0.002 0 0.003 0 0.005 0s0.003 0 0.005 0c0.002 0 0.003 0 0.005 0s0.003 0 0.005 0 0.003 0 0.005 0 0.003 0 0.005 0 0.003 0 0.005 0 0.003 0 0.005 0 0.003 0 0.005 0 0.003 0 0.005 0c0.002 0 0.003 0 0.005 0s0.003 0 0.005 0c0.002 0 0.003 0 0.005 0s0.003 0 0.005 0 0.003 0 0.005 0 0.003 0 0.005 0c0.002 0 0.003 0 0.005 0s0.003 0 0.005 0c0.002 0 0.003 0 0.005 0s0.003 0 0.005 0c0.002 0 0.003 0 0.005 0s0.003 0 0.005 0c0.002 0 0.003 0 0.005 0s0.003 0 0.005 0 0.003 0 0.005 0 0.003 0 0.005 0c0.002 0 0.003 0 0.005 0s0.003 0 0.005 0c0.002 0 0.003 0 0.005 0s0.003 0 0.005 0c0.002 0 0.003 0 0.005 0s0.003 0 0.005 0c0.002 0 0.003 0 0.005 0s0.003 0 0.005 0 0.003 0 0.005 0 0.003 0 0.005 0c0.002 0 0.003 0 0.005 0s0.003 0 0.005 0c0.002 0 0.003 0 0.005 0s0.003 0 0.005 0 0.003 0 0.005 0 0.003 0 0.005 0 0.003 0 0.005 0 0.003 0 0.005 0 0.003 0 0.005 0 0.003 0 0.005 0c0.002 0 0.003 0 0.005 0s0.003 0 0.005 0c0.002 0 0.003 0 0.005 0s0.003 0 0.005 0 0.003 0 0.005 0 0.003 0 0.005 0 0.003 0 0.005 0 0.003 0 0.005 0 0.003 0 0.005 0 0.003 0 0.005 0c0.002 0 0.003 0 0.005 0s0.003 0 0.005 0c0.002 0 0.003 0 0.005 0s0.003 0 0.005 0 0.003 0 0.005 0 0.003 0 0.005 0 0.003 0 0.005 0 0.003 0 0.005 0 0.003 0 0.005 0 0.003 0 0.005 0c0.002 0 0.003 0 0.005 0s0.003 0 0.005 0c0.002 0 0.003 0 0.005 0s0.003 0 0.005 0 0.003 0 0.005 0 0.003 0 0.005 0 0.003 0 0.005 0 0.003 0 0.005 0 0.003 0 0.005 0 0.003 0 0.005 0c0.002 0 0.003 0 0.005 0s0.003 0 0.005 0c0.002 0 0.003 0 0.005 0s0.003 0 0.005 0 0.003 0 0.005 0 0.003 0 0.005 0 0.003 0 0.005 0 0.003 0 0.005 0 0.003 0 0.005 0 0.003 0 0.005 0c0.002 0 0.003 0 0.005 0s0.003 0 0.005 0c0.002 0 0.003 0 0.005 0s0.003 0 0.005 0c0.002 0 0.003 0 0.005 0s0.003 0 0.005 0c0.002 0 0.003 0 0.005 0s0.003 0 0.005 0 0.003 0 0.005 0 0.003 0 0.005 0c0.002 0 0.003 0 0.005 0s0.003 0 0.005 0c0.002 0 0.003 0 0.005 0s0.003 0 0.005 0c0.002 0 0.003 0 0.005 0s0.003 0 0.005 0c0.002 0 0.003 0 0.005 0s0.003 0 0.005 0 0.003 0 0.005 0 0.003 0 0.005 0c0.002 0 0.003 0 0.005 0s0.003 0 0.005 0c0.002 0 0.003 0 0.005 0s0.003 0 0.005 0c0.002 0 0.003 0 0.005 0s0.003 0 0.005 0c0.002 0 0.003 0 0.005 0s0.003 0 0.005 0 0.003 0 0.005 0 0.003 0 0.005 0 0.003 0 0.005 0 0.003 0 0.005 0 0.003 0 0.005 0 0.003 0 0.005 0c0.002 0 0.003 0 0.005 0s0.003 0 0.005 0c0.002 0 0.003 0 0.005 0s0.003 0 0.005 0c0.002 0 0.003 0 0.005 0s0.003 0 0.005 0c0.002 0 0.003 0 0.005 0s0.003 0 0.005 0 0.003 0 0.005 0 0.003 0 0.005 0c0.002 0 0.003 0 0.005 0s0.003 0 0.005 0c0.002 0 0.003 0 0.005 0s0.003 0 0.005 0c0.002 0 0.003 0 0.005 0s0.003 0 0.005 0c0.002 0 0.003 0 0.005 0s0.003 0 0.005 0 0.003 0 0.005 0 0.003 0 0.005 0 0.003 0 0.005 0 0.003 0 0.005 0 0.003 0 0.005 0 0.003 0 0.005 0c0.002 0 0.003 0 0.005 0s0.003 0 0.005 0c0.002 0 0.003 0 0.005 0s0.003 0 0.005 0c0.002 0 0.003 0 0.005 0s0.003 0 0.005 0c0.002 0 0.003 0 0.005 0s0.003 0 0.005 0 0.003 0 0.005 0 0.003 0 0.005 0 0.003 0 0.005 0 0.003 0 0.005 0 0.003 0 0.005 0 0.003 0 0.005 0c0.002 0 0.003 0 0.005 0s0.003 0 0.005 0c0.002 0 0.003 0 0.005 0s0.003 0 0.005 0c0.002 0 0.003 0 0.005 0s0.003 0 0.005 0c0.002 0 0.003 0 0.005 0s0.003 0 0.005 0 0.003 0 0.005 0 0.003 0 0.005 0 0.003 0 0.005 0 0.003 0 0.005 0 0.003 0 0.005 0 0.003 0 0.005 0 0.003 0 0.005 0 0.003 0 0.005 0 0.003 0 0.005 0 0.003 0 0.005 0c0.002 0 0.003 0 0.005 0s0.003 0 0.005 0c0.002 0 0.003 0 0.005 0s0.003 0 0.005 0c0.002 0 0.003 0 0.005 0s0.003 0 0.005 0c0.002 0 0.003 0 0.005 0s0.003 0 0.005 0 0.003 0 0.005 0 0.003 0 0.005 0 0.003 0 0.005 0 0.003 0 0.005 0 0.003 0 0.005 0 0.003 0 0.005 0c0.002 0 0.003 0 0.005 0s0.003 0 0.005 0c0.002 0 0.003 0 0.005 0s0.003 0 0.005 0c0.002 0 0.003 0 0.005 0s0.003 0 0.005 0c0.002 0 0.003 0 0.005 0s0.003 0 0.005 0c0.002 0 0.003 0 0.005 0s0.003 0 0.005 0c0.002 0 0.003 0 0.005 0s0.003 0 0.005 0 0.003 0 0.005 0 0.003 0 0.005 0 0.003 0 0.005 0 0.003 0 0.005 0 0.003 0 0.005 0 0.003 0 0.005 0 0.003 0 0.005 0 0.003 0 0.005 0 0.003 0 0.005 0 0.003 0 0.005 0c0.002 0 0.003 0 0.005 0s0.003 0 0.005 0c0.002 0 0.003 0 0.005 0s0.003 0 0.005 0c0.002 0 0.003 0 0.005 0s0.003 0 0.005 0c0.002 0 0.003 0 0.005 0s0.003 0 0.005 0c0.002 0 0.003 0 0.005 0s0.003 0 0.005 0c0.002 0 0.003 0 0.005 0s0.003 0 0.005 0 0.003 0 0.005 0 0.003 0 0.005 0 0.003 0 0.005 0 0.003 0 0.005 0 0.003 0 0.005 0 0.003 0 0.005 0 0.003 0 0.005 0 0.003 0 0.005 0 0.003 0 0.005 0 0.003 0 0.005 0 0.003 0 0.005 0 0.003 0 0.005 0 0.003 0 0.005 0 0.003 0 0.005 0c0.002 0 0.003 0 0.005 0s0.003 0 0.005 0c0.002 0 0.003 0 0.005 0s0.003 0 0.005 0c0.002 0 0.003 0 0.005 0s0.003 0 0.005 0c0.002 0 0.003 0 0.005 0s0.003 0 0.005 0c0.002 0 0.003 0 0.005 0s0.003 0 0.005 0c0.002 0 0.003 0 0.005 0s0.003 0 0.005 0c0.002 0 0.003 0 0.005 0s0.003 0 0.005 0c0.002 0 0.003 0 0.005 0s0.003 0 0.005 0c0.002 0 0.003 0 0.005 0s0.003 0 0.005 0c0.002 0 0.003 0 0.005 0s0.003 0 0.005 0c0.002 0 0.003 0 0.005 0s0.003 0 0.005 0c0.002 0 0.003 0 0.005 0s0.003 0 0.005 0 0.003 0 0.005 0 0.003 0 0.005 0 0.003 0 0.005 0 0.003 0 0.005 0 0.003 0 0.005 0 0.003 0 0.005 0 0.003 0 0.005 0 0.003 0 0.005 0 0.003 0 0.005 0 0.003 0 0.005 0 0.003 0 0.005 0 0.003 0 0.005 0 0.003 0 0.005 0 0.003 0 0.005 0 0.003 0 0.005 0 0.003 0 0.005 0 0.003 0 0.005 0 0.003 0 0.005 0 0.003 0 0.005 0 0.003 0 0.005 0 0.003 0 0.005 0 0.003 0 0.005 0 0.003 0 0.005 0 0.003 0 0.005 0 0.003 0 0.005 0 0.003 0 0.005 0 0.003 0 0.005 0 0.003 0 0.005 0 0.003 0 0.005 0 0.003 0 0.005 0 0.003 0 0.005 0 0.003 0 0.005 0 0.003 0 0.005 0 0.003 0 0.005 0 0.003 0 0.005 0 0.003 0 0.005 0 0.003 0 0.005 0 0.003 0 0.005 0 0.003 0 0.005 0 0.003 0 0.005 0 0.003 0 0.005 0 0.003 0 0.005 0 0.003 0 0.005 0 0.003 0 0.005 0 0.003 0 0.005 0 0.003 0 0.005 0 0.003 0 0.005 0 0.003 0 0.005 0 0.003 0 0.005 0 0.003 0 0.005 0 0.003 0 0.005 0 0.003 0 0.005 0 0.003 0 0.005 0 0.003 0 0.005 0 0.003 0 0.005 0 0.003 0 0.005 0 0.003 0 0.005 0 0.003 0 0.005 0 0.003 0 0.005 0 0.003 0 0.005 0c0.002 0 0.003 0 0.005 0s0.003 0 0.005 0c0.002 0 0.003 0 0.005 0s0.003 0 0.005 0c0.002 0 0.003 0 0.005 0s0.003 0 0.005 0c0.002 0 0.003 0 0.005 0s0.003 0 0.005 0c0.002 0 0.003 0 0.005 0s0.003 0 0.005 0c0.002 0 0.003 0 0.005 0s0.003 0 0.005 0c0.002 0 0.003 0 0.005 0s0.003 0 0.005 0c0.002 0 0.003 0 0.005 0s0.003 0 0.005 0c0.002 0 0.003 0 0.005 0s0.003 0 0.005 0 0.003 0 0.005 0 0.003 0 0.005 0 0.003 0 0.005 0 0.003 0 0.005 0 0.003 0 0.005 0 0.003 0 0.005 0 0.003 0 0.005 0 0.003 0 0.005 0 0.003 0 0.005 0 0.003 0 0.005 0 0.003 0 0.005 0 0.003 0 0.005 0c0.002 0 0.003 0 0.005 0s0.003 0 0.005 0c0.002 0 0.003 0 0.005 0s0.003 0 0.005 0c0.002 0 0.003 0 0.005 0s0.003 0 0.005 0c0.002 0 0.003 0 0.005 0s0.003 0 0.005 0c0.002 0 0.003 0 0.005 0s0.003 0 0.005 0 0.003 0 0.005 0 0.003 0 0.005 0 0.003 0 0.005 0 0.003 0 0.005 0 0.003 0 0.005 0 0.003 0 0.005 0 0.003 0 0.005 0 0.003 0 0.005 0c0.002 0 0.003 0 0.005 0s0.003 0 0.005 0c0.002 0 0.003 0 0.005 0s0.003 0 0.005 0c0.002 0 0.003 0 0.005 0s0.003 0 0.005 0c0.002 0 0.003 0 0.005 0s0.003 0 0.005 0c0.002 0 0.003 0 0.005 0s0.003 0 0.005 0 0.003 0 0.005 0 0.003 0 0.005 0 0.003 0 0.005 0 0.003 0 0.005 0c0.002 0 0.003 0 0.005 0s0.003 0 0.005 0c0.002 0 0.003 0 0.005 0s0.003 0 0.005 0c0.002 0 0.003 0 0.005 0s0.003 0 0.005 0c0.002 0 0.003 0 0.005 0s0.003 0 0.005 0c0.002 0 0.003 0 0.005 0s0.003 0 0.005 0c0.002 0 0.003 0 0.005 0s0.003 0 0.005 0c0.002 0 0.003 0 0.005 0s0.003 0 0.005 0c0.002 0 0.003 0 0.005 0s0.003 0 0.005 0c0.002 0 0.003 0 0.005 0s0.003 0 0.005 0c0.002 0 0.003 0 0.005 0s0.003 0 0.005 0 0.003 0 0.005 0 0.003 0 0.005 0 0.003 0 0.005 0 0.003 0 0.005 0c0.002 0 0.003 0 0.005 0s0.003 0 0.005 0c0.002 0 0.003 0 0.005 0s0.003 0 0.005 0c0.002 0 0.003 0 0.005 0s0.003 0 0.005 0 0.003 0 0.005 0 0.003 0 0.005 0 0.003 0 0.005 0 0.003 0 0.005 0c0.002 0 0.003 0 0.005 0s0.003 0 0.005 0c0.002 0 0.003 0 0.005 0s0.003 0 0.005 0c0.002 0 0.003 0 0.005 0s0.003 0 0.005 0 0.003 0 0.005 0 0.003 0 0.005 0 0.003 0 0.005 0 0.003 0 0.005 0c0.002 0 0.003 0 0.005 0s0.003 0 0.005 0c0.002 0 0.003 0 0.005 0s0.003 0 0.005 0c0.002 0 0.003 0 0.005 0s0.003 0 0.005 0c0.002 0 0.003 0 0.005 0s0.003 0 0.005 0c0.002 0 0.003 0 0.005 0s0.003 0 0.005 0c0.002 0 0.003 0 0.005 0s0.003 0 0.005 0 0.003 0 0.005 0 0.003 0 0.005 0 0.003 0 0.005 0 0.003 0 0.005 0c0.002 0 0.003 0 0.005 0s0.003 0 0.005 0c0.002 0 0.003 0 0.005 0s0.003 0 0.005 0c0.002 0 0.003 0 0.005 0s0.003 0 0.005 0v-1.6zM14.57 21.6c0 0 0.010 0 0.026 0.001s0.046 0.005 0.083 0.014c0.079 0.020 0.208 0.069 0.326 0.188 0.116 0.118 0.162 0.245 0.18 0.319 0.009 0.036 0.012 0.064 0.013 0.079 0.001 0.008 0.001 0.014 0.001 0.017 0 0.002 0 0.003 0 0.004s0 0.001 0 0.001h-1.6c0 0.074-0.007 0.425 0.265 0.702 0.278 0.282 0.634 0.274 0.705 0.274v-1.6zM15.2 22.224c0-0.006 0-0.012 0-0.018s0-0.012 0-0.018 0-0.012 0-0.018 0-0.012 0-0.018c0-0.006 0-0.012 0-0.018s0-0.012 0-0.018 0-0.012 0-0.018 0-0.012 0-0.018c0-0.006 0-0.012 0-0.018s0-0.012 0-0.018c0-0.006 0-0.012 0-0.018s0-0.012 0-0.018 0-0.012 0-0.018 0-0.012 0-0.018c0-0.006 0-0.012 0-0.018s0-0.012 0-0.018c0-0.006 0-0.012 0-0.018s0-0.012 0-0.018c0-0.006 0-0.012 0-0.018s0-0.012 0-0.018c0-0.006 0-0.012 0-0.018s0-0.012 0-0.018 0-0.012 0-0.018 0-0.012 0-0.018c0-0.006 0-0.012 0-0.018s0-0.012 0-0.018c0-0.006 0-0.012 0-0.018s0-0.012 0-0.018c0-0.006 0-0.012 0-0.018s0-0.012 0-0.018c0-0.006 0-0.012 0-0.018s0-0.012 0-0.018 0-0.012 0-0.018 0-0.012 0-0.018c0-0.006 0-0.012 0-0.018s0-0.012 0-0.018c0-0.006 0-0.012 0-0.018s0-0.012 0-0.018 0-0.012 0-0.018 0-0.012 0-0.018c0-0.006 0-0.012 0-0.018s0-0.012 0-0.018 0-0.012 0-0.018 0-0.012 0-0.018c0-0.006 0-0.012 0-0.018s0-0.012 0-0.018c0-0.006 0-0.012 0-0.018s0-0.012 0-0.018 0-0.012 0-0.018 0-0.012 0-0.018c0-0.006 0-0.012 0-0.018s0-0.012 0-0.018 0-0.012 0-0.018 0-0.012 0-0.018c0-0.006 0-0.012 0-0.018s0-0.012 0-0.018c0-0.006 0-0.012 0-0.018s0-0.012 0-0.018 0-0.012 0-0.018 0-0.012 0-0.018c0-0.006 0-0.012 0-0.018s0-0.012 0-0.018 0-0.012 0-0.018 0-0.012 0-0.018c0-0.006 0-0.012 0-0.018s0-0.012 0-0.018c0-0.006 0-0.012 0-0.018s0-0.012 0-0.018c0-0.006 0-0.012 0-0.018s0-0.012 0-0.018c0-0.006 0-0.012 0-0.018s0-0.012 0-0.018 0-0.012 0-0.018 0-0.012 0-0.018c0-0.006 0-0.012 0-0.018s0-0.012 0-0.018c0-0.006 0-0.012 0-0.018s0-0.012 0-0.018c0-0.006 0-0.012 0-0.018s0-0.012 0-0.018c0-0.006 0-0.012 0-0.018s0-0.012 0-0.018 0-0.012 0-0.018 0-0.012 0-0.018c0-0.006 0-0.012 0-0.018s0-0.012 0-0.018c0-0.006 0-0.012 0-0.018s0-0.012 0-0.018c0-0.006 0-0.012 0-0.018s0-0.012 0-0.018c0-0.006 0-0.012 0-0.018s0-0.012 0-0.018 0-0.012 0-0.018 0-0.012 0-0.018c0-0.006 0-0.012 0-0.018s0-0.012 0-0.018 0-0.012 0-0.018 0-0.012 0-0.018c0-0.006 0-0.012 0-0.018s0-0.012 0-0.018c0-0.006 0-0.012 0-0.018s0-0.012 0-0.018c0-0.006 0-0.012 0-0.018s0-0.012 0-0.018c0-0.006 0-0.012 0-0.018s0-0.012 0-0.018 0-0.012 0-0.018 0-0.012 0-0.018c0-0.006 0-0.012 0-0.018s0-0.012 0-0.018 0-0.012 0-0.018 0-0.012 0-0.018c0-0.006 0-0.012 0-0.018s0-0.012 0-0.018c0-0.006 0-0.012 0-0.018s0-0.012 0-0.018 0-0.012 0-0.018 0-0.012 0-0.018c0-0.006 0-0.012 0-0.018s0-0.012 0-0.018 0-0.012 0-0.018 0-0.012 0-0.018c0-0.006 0-0.012 0-0.018s0-0.012 0-0.018c0-0.006 0-0.012 0-0.018s0-0.012 0-0.018c0-0.006 0-0.012 0-0.018s0-0.012 0-0.018c0-0.006 0-0.012 0-0.018s0-0.012 0-0.018 0-0.012 0-0.018 0-0.012 0-0.018c0-0.006 0-0.012 0-0.018s0-0.012 0-0.018 0-0.012 0-0.018 0-0.012 0-0.018c0-0.006 0-0.012 0-0.018s0-0.012 0-0.018c0-0.006 0-0.012 0-0.018s0-0.012 0-0.018c0-0.006 0-0.012 0-0.018s0-0.012 0-0.018c0-0.006 0-0.012 0-0.018s0-0.012 0-0.018 0-0.012 0-0.018 0-0.012 0-0.018c0-0.006 0-0.012 0-0.018s0-0.012 0-0.018 0-0.012 0-0.018 0-0.012 0-0.018c0-0.006 0-0.012 0-0.018s0-0.012 0-0.018c0-0.006 0-0.012 0-0.018s0-0.012 0-0.018c0-0.006 0-0.012 0-0.018s0-0.012 0-0.018c0-0.006 0-0.012 0-0.018s0-0.012 0-0.018c0-0.006 0-0.012 0-0.018s0-0.012 0-0.018c0-0.006 0-0.012 0-0.018s0-0.012 0-0.018 0-0.012 0-0.018 0-0.012 0-0.018c0-0.006 0-0.012 0-0.018s0-0.012 0-0.018 0-0.012 0-0.018 0-0.012 0-0.018c0-0.006 0-0.012 0-0.018s0-0.012 0-0.018c0-0.006 0-0.012 0-0.018s0-0.012 0-0.018c0-0.006 0-0.012 0-0.018s0-0.012 0-0.018c0-0.006 0-0.012 0-0.018s0-0.012 0-0.018 0-0.012 0-0.018 0-0.012 0-0.018c0-0.006 0-0.012 0-0.018s0-0.012 0-0.018 0-0.012 0-0.018 0-0.012 0-0.018c0-0.006 0-0.012 0-0.018s0-0.012 0-0.018 0-0.012 0-0.018 0-0.012 0-0.018c0-0.006 0-0.012 0-0.018s0-0.012 0-0.018c0-0.006 0-0.012 0-0.018s0-0.012 0-0.018c0-0.006 0-0.012 0-0.018s0-0.012 0-0.018c0-0.006 0-0.012 0-0.018s0-0.012 0-0.018 0-0.012 0-0.018 0-0.012 0-0.018c0-0.006 0-0.012 0-0.018s0-0.012 0-0.018 0-0.012 0-0.018 0-0.012 0-0.018c0-0.006 0-0.012 0-0.018s0-0.012 0-0.018 0-0.012 0-0.018 0-0.012 0-0.018c0-0.006 0-0.012 0-0.018s0-0.012 0-0.018c0-0.006 0-0.012 0-0.018s0-0.012 0-0.018c0-0.006 0-0.012 0-0.018s0-0.012 0-0.018c0-0.006 0-0.012 0-0.018s0-0.012 0-0.018c0-0.006 0-0.012 0-0.018s0-0.012 0-0.018c0-0.006 0-0.012 0-0.018s0-0.012 0-0.018 0-0.012 0-0.018 0-0.012 0-0.018c0-0.006 0-0.012 0-0.018s0-0.012 0-0.018 0-0.012 0-0.018 0-0.012 0-0.018c0-0.006 0-0.012 0-0.018s0-0.012 0-0.018 0-0.012 0-0.018 0-0.012 0-0.018c0-0.006 0-0.012 0-0.018s0-0.012 0-0.018 0-0.012 0-0.018 0-0.012 0-0.018c0-0.006 0-0.012 0-0.018s0-0.012 0-0.018c0-0.006 0-0.012 0-0.018s0-0.012 0-0.018c0-0.006 0-0.012 0-0.018s0-0.012 0-0.018c0-0.006 0-0.012 0-0.018s0-0.012 0-0.018c0-0.006 0-0.012 0-0.018s0-0.012 0-0.018c0-0.006 0-0.012 0-0.018s0-0.012 0-0.018 0-0.012 0-0.018 0-0.012 0-0.018c0-0.006 0-0.012 0-0.018s0-0.012 0-0.018 0-0.012 0-0.018 0-0.012 0-0.018c0-0.006 0-0.012 0-0.018s0-0.012 0-0.018 0-0.012 0-0.018 0-0.012 0-0.018c0-0.006 0-0.012 0-0.018s0-0.012 0-0.018 0-0.012 0-0.018 0-0.012 0-0.018c0-0.006 0-0.012 0-0.018s0-0.012 0-0.018c0-0.006 0-0.012 0-0.018s0-0.012 0-0.018c0-0.006 0-0.012 0-0.018s0-0.012 0-0.018c0-0.006 0-0.012 0-0.018s0-0.012 0-0.018c0-0.006 0-0.012 0-0.018s0-0.012 0-0.018c0-0.006 0-0.012 0-0.018s0-0.012 0-0.018c0-0.006 0-0.012 0-0.018s0-0.012 0-0.018c0-0.006 0-0.012 0-0.018s0-0.012 0-0.018c0-0.006 0-0.012 0-0.018s0-0.012 0-0.018c0-0.006 0-0.012 0-0.018s0-0.012 0-0.018 0-0.012 0-0.018 0-0.012 0-0.018c0-0.006 0-0.012 0-0.018s0-0.012 0-0.018 0-0.012 0-0.018 0-0.012 0-0.018c0-0.006 0-0.012 0-0.018s0-0.012 0-0.018 0-0.012 0-0.018 0-0.012 0-0.018c0-0.006 0-0.012 0-0.018s0-0.012 0-0.018 0-0.012 0-0.018 0-0.012 0-0.018c0-0.006 0-0.012 0-0.018s0-0.012 0-0.018 0-0.012 0-0.018 0-0.012 0-0.018c0-0.006 0-0.012 0-0.018s0-0.012 0-0.018 0-0.012 0-0.018 0-0.012 0-0.018c0-0.006 0-0.012 0-0.018s0-0.012 0-0.018 0-0.012 0-0.018 0-0.012 0-0.018c0-0.006 0-0.012 0-0.018s0-0.012 0-0.018c0-0.006 0-0.012 0-0.018s0-0.012 0-0.018c0-0.006 0-0.012 0-0.018s0-0.012 0-0.018c0-0.006 0-0.012 0-0.018s0-0.012 0-0.018c0-0.006 0-0.012 0-0.018s0-0.012 0-0.018c0-0.006 0-0.012 0-0.018s0-0.012 0-0.018c0-0.006 0-0.012 0-0.018s0-0.012 0-0.018c0-0.006 0-0.012 0-0.018s0-0.012 0-0.018c0-0.006 0-0.012 0-0.018s0-0.012 0-0.018c0-0.006 0-0.012 0-0.018s0-0.012 0-0.018c0-0.006 0-0.012 0-0.018s0-0.012 0-0.018c0-0.006 0-0.012 0-0.018s0-0.012 0-0.018c0-0.006 0-0.012 0-0.018s0-0.012 0-0.018c0-0.006 0-0.012 0-0.018s0-0.012 0-0.018c0-0.006 0-0.012 0-0.018s0-0.012 0-0.018c0-0.006 0-0.012 0-0.018s0-0.012 0-0.018c0-0.006 0-0.012 0-0.018s0-0.012 0-0.018c0-0.006 0-0.012 0-0.018s0-0.012 0-0.018c0-0.006 0-0.012 0-0.018s0-0.012 0-0.018c0-0.006 0-0.012 0-0.018s0-0.012 0-0.018c0-0.006 0-0.012 0-0.018s0-0.012 0-0.018c0-0.006 0-0.012 0-0.018s0-0.012 0-0.018c0-0.006 0-0.012 0-0.018s0-0.012 0-0.018c0-0.006 0-0.012 0-0.018s0-0.012 0-0.018c0-0.006 0-0.012 0-0.018s0-0.012 0-0.018c0-0.006 0-0.012 0-0.018s0-0.012 0-0.018c0-0.006 0-0.012 0-0.018s0-0.012 0-0.018c0-0.006 0-0.012 0-0.018s0-0.012 0-0.018c0-0.006 0-0.012 0-0.018s0-0.012 0-0.018c0-0.006 0-0.012 0-0.018s0-0.012 0-0.018c0-0.006 0-0.012 0-0.018s0-0.012 0-0.018c0-0.006 0-0.012 0-0.018s0-0.012 0-0.018c0-0.006 0-0.012 0-0.018s0-0.012 0-0.018c0-0.006 0-0.012 0-0.018s0-0.012 0-0.018c0-0.006 0-0.012 0-0.018s0-0.012 0-0.018c0-0.006 0-0.012 0-0.018s0-0.012 0-0.018c0-0.006 0-0.012 0-0.018s0-0.012 0-0.018c0-0.006 0-0.012 0-0.018s0-0.012 0-0.018c0-0.006 0-0.012 0-0.018s0-0.012 0-0.018c0-0.006 0-0.012 0-0.018s0-0.012 0-0.018c0-0.006 0-0.012 0-0.018s0-0.012 0-0.018c0-0.006 0-0.012 0-0.018s0-0.012 0-0.018c0-0.006 0-0.012 0-0.018s0-0.012 0-0.018c0-0.006 0-0.012 0-0.018s0-0.012 0-0.018c0-0.006 0-0.012 0-0.018s0-0.012 0-0.018 0-0.012 0-0.018 0-0.012 0-0.018c0-0.006 0-0.012 0-0.018s0-0.012 0-0.018 0-0.012 0-0.018 0-0.012 0-0.018c0-0.006 0-0.012 0-0.018s0-0.012 0-0.018 0-0.012 0-0.018 0-0.012 0-0.018c0-0.006 0-0.012 0-0.018s0-0.012 0-0.018 0-0.012 0-0.018 0-0.012 0-0.018c0-0.006 0-0.012 0-0.018s0-0.012 0-0.018 0-0.012 0-0.018 0-0.012 0-0.018c0-0.006 0-0.012 0-0.018s0-0.012 0-0.018 0-0.012 0-0.018 0-0.012 0-0.018c0-0.006 0-0.012 0-0.018s0-0.012 0-0.018c0-0.006 0-0.012 0-0.018s0-0.012 0-0.018c0-0.006 0-0.012 0-0.018s0-0.012 0-0.018c0-0.006 0-0.012 0-0.018s0-0.012 0-0.018c0-0.006 0-0.012 0-0.018s0-0.012 0-0.018c0-0.006 0-0.012 0-0.018s0-0.012 0-0.018c0-0.006 0-0.012 0-0.018s0-0.012 0-0.018c0-0.006 0-0.012 0-0.018s0-0.012 0-0.018c0-0.006 0-0.012 0-0.018s0-0.012 0-0.018c0-0.006 0-0.012 0-0.018s0-0.012 0-0.018c0-0.006 0-0.012 0-0.018s0-0.012 0-0.018c0-0.006 0-0.012 0-0.018s0-0.012 0-0.018 0-0.012 0-0.018 0-0.012 0-0.018c0-0.006 0-0.012 0-0.018s0-0.012 0-0.018 0-0.012 0-0.018 0-0.012 0-0.018c0-0.006 0-0.012 0-0.018s0-0.012 0-0.018 0-0.012 0-0.018 0-0.012 0-0.018c0-0.006 0-0.012 0-0.018s0-0.012 0-0.018c0-0.006 0-0.012 0-0.018s0-0.012 0-0.018c0-0.006 0-0.012 0-0.018s0-0.012 0-0.018c0-0.006 0-0.012 0-0.018s0-0.012 0-0.018c0-0.006 0-0.012 0-0.018s0-0.012 0-0.018c0-0.006 0-0.012 0-0.018s0-0.012 0-0.018c0-0.006 0-0.012 0-0.018s0-0.012 0-0.018c0-0.006 0-0.012 0-0.018s0-0.012 0-0.018c0-0.006 0-0.012 0-0.018s0-0.012 0-0.018c0-0.006 0-0.012 0-0.018s0-0.012 0-0.018 0-0.012 0-0.018 0-0.012 0-0.018c0-0.006 0-0.012 0-0.018s0-0.012 0-0.018 0-0.012 0-0.018 0-0.012 0-0.018c0-0.006 0-0.012 0-0.018s0-0.012 0-0.018c0-0.006 0-0.012 0-0.018s0-0.012 0-0.018c0-0.006 0-0.012 0-0.018s0-0.012 0-0.018c0-0.006 0-0.012 0-0.018s0-0.012 0-0.018c0-0.006 0-0.012 0-0.018s0-0.012 0-0.018c0-0.006 0-0.012 0-0.018s0-0.012 0-0.018c0-0.006 0-0.012 0-0.018s0-0.012 0-0.018c0-0.006 0-0.012 0-0.018s0-0.012 0-0.018 0-0.012 0-0.018 0-0.012 0-0.018c0-0.006 0-0.012 0-0.018s0-0.012 0-0.018 0-0.012 0-0.018 0-0.012 0-0.018c0-0.006 0-0.012 0-0.018s0-0.012 0-0.018c0-0.006 0-0.012 0-0.018s0-0.012 0-0.018c0-0.006 0-0.012 0-0.018s0-0.012 0-0.018c0-0.006 0-0.012 0-0.018s0-0.012 0-0.018c0-0.006 0-0.012 0-0.018s0-0.012 0-0.018c0-0.006 0-0.012 0-0.018s0-0.012 0-0.018 0-0.012 0-0.018 0-0.012 0-0.018c0-0.006 0-0.012 0-0.018s0-0.012 0-0.018h-1.6c0 0.006 0 0.012 0 0.018s0 0.012 0 0.018c0 0.006 0 0.012 0 0.018s0 0.012 0 0.018c0 0.006 0 0.012 0 0.018s0 0.012 0 0.018c0 0.006 0 0.012 0 0.018s0 0.012 0 0.018 0 0.012 0 0.018 0 0.012 0 0.018c0 0.006 0 0.012 0 0.018s0 0.012 0 0.018 0 0.012 0 0.018 0 0.012 0 0.018c0 0.006 0 0.012 0 0.018s0 0.012 0 0.018c0 0.006 0 0.012 0 0.018s0 0.012 0 0.018c0 0.006 0 0.012 0 0.018s0 0.012 0 0.018c0 0.006 0 0.012 0 0.018s0 0.012 0 0.018c0 0.006 0 0.012 0 0.018s0 0.012 0 0.018c0 0.006 0 0.012 0 0.018s0 0.012 0 0.018c0 0.006 0 0.012 0 0.018s0 0.012 0 0.018c0 0.006 0 0.012 0 0.018s0 0.012 0 0.018 0 0.012 0 0.018 0 0.012 0 0.018c0 0.006 0 0.012 0 0.018s0 0.012 0 0.018 0 0.012 0 0.018 0 0.012 0 0.018c0 0.006 0 0.012 0 0.018s0 0.012 0 0.018c0 0.006 0 0.012 0 0.018s0 0.012 0 0.018c0 0.006 0 0.012 0 0.018s0 0.012 0 0.018c0 0.006 0 0.012 0 0.018s0 0.012 0 0.018c0 0.006 0 0.012 0 0.018s0 0.012 0 0.018c0 0.006 0 0.012 0 0.018s0 0.012 0 0.018c0 0.006 0 0.012 0 0.018s0 0.012 0 0.018c0 0.006 0 0.012 0 0.018s0 0.012 0 0.018 0 0.012 0 0.018 0 0.012 0 0.018c0 0.006 0 0.012 0 0.018s0 0.012 0 0.018 0 0.012 0 0.018 0 0.012 0 0.018c0 0.006 0 0.012 0 0.018s0 0.012 0 0.018 0 0.012 0 0.018 0 0.012 0 0.018c0 0.006 0 0.012 0 0.018s0 0.012 0 0.018c0 0.006 0 0.012 0 0.018s0 0.012 0 0.018c0 0.006 0 0.012 0 0.018s0 0.012 0 0.018c0 0.006 0 0.012 0 0.018s0 0.012 0 0.018c0 0.006 0 0.012 0 0.018s0 0.012 0 0.018c0 0.006 0 0.012 0 0.018s0 0.012 0 0.018c0 0.006 0 0.012 0 0.018s0 0.012 0 0.018c0 0.006 0 0.012 0 0.018s0 0.012 0 0.018 0 0.012 0 0.018 0 0.012 0 0.018c0 0.006 0 0.012 0 0.018s0 0.012 0 0.018 0 0.012 0 0.018 0 0.012 0 0.018c0 0.006 0 0.012 0 0.018s0 0.012 0 0.018 0 0.012 0 0.018 0 0.012 0 0.018c0 0.006 0 0.012 0 0.018s0 0.012 0 0.018 0 0.012 0 0.018 0 0.012 0 0.018c0 0.006 0 0.012 0 0.018s0 0.012 0 0.018 0 0.012 0 0.018 0 0.012 0 0.018c0 0.006 0 0.012 0 0.018s0 0.012 0 0.018c0 0.006 0 0.012 0 0.018s0 0.012 0 0.018c0 0.006 0 0.012 0 0.018s0 0.012 0 0.018c0 0.006 0 0.012 0 0.018s0 0.012 0 0.018c0 0.006 0 0.012 0 0.018s0 0.012 0 0.018c0 0.006 0 0.012 0 0.018s0 0.012 0 0.018c0 0.006 0 0.012 0 0.018s0 0.012 0 0.018c0 0.006 0 0.012 0 0.018s0 0.012 0 0.018c0 0.006 0 0.012 0 0.018s0 0.012 0 0.018c0 0.006 0 0.012 0 0.018s0 0.012 0 0.018c0 0.006 0 0.012 0 0.018s0 0.012 0 0.018c0 0.006 0 0.012 0 0.018s0 0.012 0 0.018c0 0.006 0 0.012 0 0.018s0 0.012 0 0.018c0 0.006 0 0.012 0 0.018s0 0.012 0 0.018 0 0.012 0 0.018 0 0.012 0 0.018c0 0.006 0 0.012 0 0.018s0 0.012 0 0.018 0 0.012 0 0.018 0 0.012 0 0.018c0 0.006 0 0.012 0 0.018s0 0.012 0 0.018 0 0.012 0 0.018 0 0.012 0 0.018c0 0.006 0 0.012 0 0.018s0 0.012 0 0.018 0 0.012 0 0.018 0 0.012 0 0.018c0 0.006 0 0.012 0 0.018s0 0.012 0 0.018 0 0.012 0 0.018 0 0.012 0 0.018c0 0.006 0 0.012 0 0.018s0 0.012 0 0.018 0 0.012 0 0.018 0 0.012 0 0.018c0 0.006 0 0.012 0 0.018s0 0.012 0 0.018 0 0.012 0 0.018 0 0.012 0 0.018c0 0.006 0 0.012 0 0.018s0 0.012 0 0.018 0 0.012 0 0.018 0 0.012 0 0.018c0 0.006 0 0.012 0 0.018s0 0.012 0 0.018 0 0.012 0 0.018 0 0.012 0 0.018c0 0.006 0 0.012 0 0.018s0 0.012 0 0.018 0 0.012 0 0.018 0 0.012 0 0.018c0 0.006 0 0.012 0 0.018s0 0.012 0 0.018 0 0.012 0 0.018 0 0.012 0 0.018c0 0.006 0 0.012 0 0.018s0 0.012 0 0.018 0 0.012 0 0.018 0 0.012 0 0.018c0 0.006 0 0.012 0 0.018s0 0.012 0 0.018 0 0.012 0 0.018 0 0.012 0 0.018c0 0.006 0 0.012 0 0.018s0 0.012 0 0.018 0 0.012 0 0.018 0 0.012 0 0.018c0 0.006 0 0.012 0 0.018s0 0.012 0 0.018 0 0.012 0 0.018 0 0.012 0 0.018c0 0.006 0 0.012 0 0.018s0 0.012 0 0.018 0 0.012 0 0.018 0 0.012 0 0.018c0 0.006 0 0.012 0 0.018s0 0.012 0 0.018 0 0.012 0 0.018 0 0.012 0 0.018c0 0.006 0 0.012 0 0.018s0 0.012 0 0.018 0 0.012 0 0.018 0 0.012 0 0.018c0 0.006 0 0.012 0 0.018s0 0.012 0 0.018 0 0.012 0 0.018 0 0.012 0 0.018c0 0.006 0 0.012 0 0.018s0 0.012 0 0.018 0 0.012 0 0.018 0 0.012 0 0.018c0 0.006 0 0.012 0 0.018s0 0.012 0 0.018 0 0.012 0 0.018 0 0.012 0 0.018c0 0.006 0 0.012 0 0.018s0 0.012 0 0.018 0 0.012 0 0.018 0 0.012 0 0.018c0 0.006 0 0.012 0 0.018s0 0.012 0 0.018c0 0.006 0 0.012 0 0.018s0 0.012 0 0.018c0 0.006 0 0.012 0 0.018s0 0.012 0 0.018c0 0.006 0 0.012 0 0.018s0 0.012 0 0.018c0 0.006 0 0.012 0 0.018s0 0.012 0 0.018c0 0.006 0 0.012 0 0.018s0 0.012 0 0.018c0 0.006 0 0.012 0 0.018s0 0.012 0 0.018c0 0.006 0 0.012 0 0.018s0 0.012 0 0.018c0 0.006 0 0.012 0 0.018s0 0.012 0 0.018c0 0.006 0 0.012 0 0.018s0 0.012 0 0.018c0 0.006 0 0.012 0 0.018s0 0.012 0 0.018c0 0.006 0 0.012 0 0.018s0 0.012 0 0.018c0 0.006 0 0.012 0 0.018s0 0.012 0 0.018c0 0.006 0 0.012 0 0.018s0 0.012 0 0.018 0 0.012 0 0.018 0 0.012 0 0.018c0 0.006 0 0.012 0 0.018s0 0.012 0 0.018 0 0.012 0 0.018 0 0.012 0 0.018c0 0.006 0 0.012 0 0.018s0 0.012 0 0.018 0 0.012 0 0.018 0 0.012 0 0.018c0 0.006 0 0.012 0 0.018s0 0.012 0 0.018 0 0.012 0 0.018 0 0.012 0 0.018c0 0.006 0 0.012 0 0.018s0 0.012 0 0.018 0 0.012 0 0.018 0 0.012 0 0.018c0 0.006 0 0.012 0 0.018s0 0.012 0 0.018c0 0.006 0 0.012 0 0.018s0 0.012 0 0.018c0 0.006 0 0.012 0 0.018s0 0.012 0 0.018c0 0.006 0 0.012 0 0.018s0 0.012 0 0.018c0 0.006 0 0.012 0 0.018s0 0.012 0 0.018c0 0.006 0 0.012 0 0.018s0 0.012 0 0.018c0 0.006 0 0.012 0 0.018s0 0.012 0 0.018c0 0.006 0 0.012 0 0.018s0 0.012 0 0.018 0 0.012 0 0.018 0 0.012 0 0.018c0 0.006 0 0.012 0 0.018s0 0.012 0 0.018 0 0.012 0 0.018 0 0.012 0 0.018c0 0.006 0 0.012 0 0.018s0 0.012 0 0.018 0 0.012 0 0.018 0 0.012 0 0.018c0 0.006 0 0.012 0 0.018s0 0.012 0 0.018 0 0.012 0 0.018 0 0.012 0 0.018c0 0.006 0 0.012 0 0.018s0 0.012 0 0.018c0 0.006 0 0.012 0 0.018s0 0.012 0 0.018c0 0.006 0 0.012 0 0.018s0 0.012 0 0.018c0 0.006 0 0.012 0 0.018s0 0.012 0 0.018c0 0.006 0 0.012 0 0.018s0 0.012 0 0.018c0 0.006 0 0.012 0 0.018s0 0.012 0 0.018 0 0.012 0 0.018 0 0.012 0 0.018c0 0.006 0 0.012 0 0.018s0 0.012 0 0.018 0 0.012 0 0.018 0 0.012 0 0.018c0 0.006 0 0.012 0 0.018s0 0.012 0 0.018 0 0.012 0 0.018 0 0.012 0 0.018c0 0.006 0 0.012 0 0.018s0 0.012 0 0.018c0 0.006 0 0.012 0 0.018s0 0.012 0 0.018c0 0.006 0 0.012 0 0.018s0 0.012 0 0.018c0 0.006 0 0.012 0 0.018s0 0.012 0 0.018c0 0.006 0 0.012 0 0.018s0 0.012 0 0.018c0 0.006 0 0.012 0 0.018s0 0.012 0 0.018 0 0.012 0 0.018 0 0.012 0 0.018c0 0.006 0 0.012 0 0.018s0 0.012 0 0.018 0 0.012 0 0.018 0 0.012 0 0.018c0 0.006 0 0.012 0 0.018s0 0.012 0 0.018c0 0.006 0 0.012 0 0.018s0 0.012 0 0.018c0 0.006 0 0.012 0 0.018s0 0.012 0 0.018c0 0.006 0 0.012 0 0.018s0 0.012 0 0.018c0 0.006 0 0.012 0 0.018s0 0.012 0 0.018c0 0.006 0 0.012 0 0.018s0 0.012 0 0.018 0 0.012 0 0.018 0 0.012 0 0.018c0 0.006 0 0.012 0 0.018s0 0.012 0 0.018 0 0.012 0 0.018 0 0.012 0 0.018c0 0.006 0 0.012 0 0.018s0 0.012 0 0.018c0 0.006 0 0.012 0 0.018s0 0.012 0 0.018c0 0.006 0 0.012 0 0.018s0 0.012 0 0.018c0 0.006 0 0.012 0 0.018s0 0.012 0 0.018c0 0.006 0 0.012 0 0.018s0 0.012 0 0.018c0 0.006 0 0.012 0 0.018s0 0.012 0 0.018 0 0.012 0 0.018 0 0.012 0 0.018c0 0.006 0 0.012 0 0.018s0 0.012 0 0.018 0 0.012 0 0.018 0 0.012 0 0.018c0 0.006 0 0.012 0 0.018s0 0.012 0 0.018c0 0.006 0 0.012 0 0.018s0 0.012 0 0.018c0 0.006 0 0.012 0 0.018s0 0.012 0 0.018c0 0.006 0 0.012 0 0.018s0 0.012 0 0.018 0 0.012 0 0.018 0 0.012 0 0.018c0 0.006 0 0.012 0 0.018s0 0.012 0 0.018 0 0.012 0 0.018 0 0.012 0 0.018c0 0.006 0 0.012 0 0.018s0 0.012 0 0.018c0 0.006 0 0.012 0 0.018s0 0.012 0 0.018c0 0.006 0 0.012 0 0.018s0 0.012 0 0.018c0 0.006 0 0.012 0 0.018s0 0.012 0 0.018 0 0.012 0 0.018 0 0.012 0 0.018c0 0.006 0 0.012 0 0.018s0 0.012 0 0.018 0 0.012 0 0.018 0 0.012 0 0.018c0 0.006 0 0.012 0 0.018s0 0.012 0 0.018c0 0.006 0 0.012 0 0.018s0 0.012 0 0.018c0 0.006 0 0.012 0 0.018s0 0.012 0 0.018c0 0.006 0 0.012 0 0.018s0 0.012 0 0.018 0 0.012 0 0.018 0 0.012 0 0.018c0 0.006 0 0.012 0 0.018s0 0.012 0 0.018 0 0.012 0 0.018 0 0.012 0 0.018c0 0.006 0 0.012 0 0.018s0 0.012 0 0.018c0 0.006 0 0.012 0 0.018s0 0.012 0 0.018c0 0.006 0 0.012 0 0.018s0 0.012 0 0.018c0 0.006 0 0.012 0 0.018s0 0.012 0 0.018 0 0.012 0 0.018 0 0.012 0 0.018c0 0.006 0 0.012 0 0.018s0 0.012 0 0.018c0 0.006 0 0.012 0 0.018s0 0.012 0 0.018c0 0.006 0 0.012 0 0.018s0 0.012 0 0.018c0 0.006 0 0.012 0 0.018s0 0.012 0 0.018 0 0.012 0 0.018 0 0.012 0 0.018c0 0.006 0 0.012 0 0.018s0 0.012 0 0.018 0 0.012 0 0.018 0 0.012 0 0.018c0 0.006 0 0.012 0 0.018s0 0.012 0 0.018c0 0.006 0 0.012 0 0.018s0 0.012 0 0.018 0 0.012 0 0.018 0 0.012 0 0.018c0 0.006 0 0.012 0 0.018s0 0.012 0 0.018 0 0.012 0 0.018 0 0.012 0 0.018c0 0.006 0 0.012 0 0.018s0 0.012 0 0.018c0 0.006 0 0.012 0 0.018s0 0.012 0 0.018c0 0.006 0 0.012 0 0.018s0 0.012 0 0.018c0 0.006 0 0.012 0 0.018s0 0.012 0 0.018 0 0.012 0 0.018 0 0.012 0 0.018c0 0.006 0 0.012 0 0.018s0 0.012 0 0.018c0 0.006 0 0.012 0 0.018s0 0.012 0 0.018c0 0.006 0 0.012 0 0.018s0 0.012 0 0.018c0 0.006 0 0.012 0 0.018s0 0.012 0 0.018 0 0.012 0 0.018 0 0.012 0 0.018c0 0.006 0 0.012 0 0.018s0 0.012 0 0.018c0 0.006 0 0.012 0 0.018s0 0.012 0 0.018c0 0.006 0 0.012 0 0.018s0 0.012 0 0.018c0 0.006 0 0.012 0 0.018s0 0.012 0 0.018 0 0.012 0 0.018 0 0.012 0 0.018c0 0.006 0 0.012 0 0.018s0 0.012 0 0.018c0 0.006 0 0.012 0 0.018s0 0.012 0 0.018c0 0.006 0 0.012 0 0.018s0 0.012 0 0.018c0 0.006 0 0.012 0 0.018s0 0.012 0 0.018 0 0.012 0 0.018 0 0.012 0 0.018c0 0.006 0 0.012 0 0.018s0 0.012 0 0.018c0 0.006 0 0.012 0 0.018s0 0.012 0 0.018c0 0.006 0 0.012 0 0.018s0 0.012 0 0.018c0 0.006 0 0.012 0 0.018s0 0.012 0 0.018 0 0.012 0 0.018 0 0.012 0 0.018c0 0.006 0 0.012 0 0.018s0 0.012 0 0.018c0 0.006 0 0.012 0 0.018s0 0.012 0 0.018c0 0.006 0 0.012 0 0.018s0 0.012 0 0.018c0 0.006 0 0.012 0 0.018s0 0.012 0 0.018 0 0.012 0 0.018 0 0.012 0 0.018c0 0.006 0 0.012 0 0.018s0 0.012 0 0.018c0 0.006 0 0.012 0 0.018s0 0.012 0 0.018 0 0.012 0 0.018 0 0.012 0 0.018c0 0.006 0 0.012 0 0.018s0 0.012 0 0.018 0 0.012 0 0.018 0 0.012 0 0.018c0 0.006 0 0.012 0 0.018s0 0.012 0 0.018c0 0.006 0 0.012 0 0.018s0 0.012 0 0.018h1.6zM15.2 13.224c0 0.001 0 0.012-0.002 0.030s-0.006 0.050-0.017 0.091c-0.024 0.087-0.081 0.22-0.21 0.334-0.124 0.11-0.251 0.147-0.314 0.16-0.056 0.012-0.092 0.010-0.075 0.010v-1.6c-0.043 0-0.39-0.017-0.672 0.233-0.312 0.276-0.31 0.651-0.31 0.743h1.6zM14.575 13.848c0.787 0.007 1.574 0.007 2.36 0l-0.014-1.6c-0.777 0.007-1.554 0.007-2.332 0l-0.014 1.6zM16.928 13.848c-0 0-0.053 0.001-0.13-0.021-0.086-0.024-0.216-0.082-0.328-0.209-0.11-0.125-0.149-0.255-0.162-0.331-0.007-0.037-0.008-0.066-0.008-0.082s0-0.026 0-0.027l1.596 0.116c0.006-0.083 0.036-0.437-0.226-0.734-0.273-0.31-0.642-0.312-0.742-0.312v1.6zM16.298 13.244c0.004 0.345 0.008 0.696 0.008 1.051h1.6c0-0.365-0.005-0.731-0.009-1.067l-1.6 0.016z"></path>
<path stroke-linejoin="miter" stroke-linecap="butt" stroke-miterlimit="4" stroke-width="0.8" d="M11.833 22c0.001-0 0.001-0 0.002-0s0.002-0 0.002-0l-0.004 0zM11.833 22l-0.003 0.18h-0.001l0.002-0.18 0.001-0zM10 13.207v-0.006h1.598c-0.001 1.471-0 2.942 0.002 4.413v4.383c-0.39-0.004-0.782-0.002-1.17 0-0.144 0.001-0.287 0.001-0.43 0.002v-8.793zM11.845 13.201c0.002 0 0.002 0-0 0h0zM9.741 22c0 0 0.001 0 0.002 0l-0.002-0z"></path>
<path stroke-linejoin="miter" stroke-linecap="butt" stroke-miterlimit="4" stroke-width="0.8" d="M12.4 9.992c0.002 0.317-0.091 0.627-0.266 0.891s-0.424 0.471-0.717 0.593c-0.292 0.122-0.614 0.155-0.926 0.094s-0.597-0.213-0.821-0.437-0.377-0.509-0.439-0.82c-0.062-0.311-0.030-0.633 0.091-0.926s0.327-0.543 0.591-0.719c0.264-0.176 0.573-0.269 0.89-0.269 0.422 0.002 0.826 0.171 1.125 0.469s0.469 0.702 0.472 1.124z"></path>
</symbol>
<symbol id="icon-behance" viewBox="0 0 32 32">
<path stroke-linejoin="miter" stroke-linecap="butt" stroke-miterlimit="4" stroke-width="0.8" d="M31.6 16c0 8.616-6.984 15.6-15.6 15.6s-15.6-6.984-15.6-15.6c0-8.616 6.984-15.6 15.6-15.6s15.6 6.984 15.6 15.6z"></path>
<path d="M12.605 10.4c0.502-0.005 1.003 0.043 1.495 0.142 0.413 0.079 0.805 0.235 1.157 0.46 0.322 0.216 0.581 0.51 0.75 0.854 0.187 0.413 0.276 0.861 0.261 1.312 0.021 0.5-0.115 0.994-0.391 1.415-0.298 0.404-0.702 0.723-1.169 0.923 0.635 0.152 1.193 0.521 1.574 1.040 0.305 0.487 0.481 1.039 0.513 1.609s-0.081 1.138-0.329 1.654c-0.214 0.403-0.525 0.751-0.905 1.012-0.396 0.268-0.838 0.465-1.305 0.581-0.489 0.129-0.993 0.195-1.499 0.198h-5.557v-11.184l5.405-0.016zM12.277 14.918c0.396 0.016 0.786-0.094 1.112-0.314 0.29-0.198 0.43-0.547 0.43-1.016 0.009-0.222-0.039-0.443-0.14-0.642-0.090-0.164-0.225-0.301-0.389-0.395-0.171-0.099-0.359-0.166-0.555-0.198-0.214-0.039-0.432-0.057-0.65-0.055h-2.36v2.613l2.552 0.008zM12.416 19.679c0.238 0.002 0.476-0.022 0.709-0.071 0.212-0.040 0.414-0.12 0.594-0.237 0.172-0.112 0.311-0.265 0.405-0.445 0.109-0.226 0.16-0.475 0.15-0.725 0-0.577-0.166-0.988-0.496-1.235-0.386-0.259-0.849-0.387-1.317-0.366h-2.737v3.079h2.692z"></path>
<path d="M20.353 19.38c0.331 0.337 0.805 0.505 1.422 0.505 0.409 0.010 0.81-0.112 1.149-0.35 0.269-0.172 0.475-0.432 0.586-0.739h1.936c-0.313 1.004-0.782 1.721-1.428 2.152-0.695 0.45-1.502 0.676-2.319 0.65-0.583 0.008-1.163-0.099-1.708-0.316-0.488-0.198-0.929-0.505-1.292-0.898-0.358-0.402-0.635-0.875-0.813-1.391-0.196-0.57-0.294-1.172-0.287-1.778-0.004-0.596 0.096-1.187 0.295-1.745 0.185-0.521 0.471-0.997 0.838-1.399 0.369-0.397 0.81-0.713 1.297-0.931 0.528-0.232 1.096-0.348 1.669-0.34 0.616-0.017 1.227 0.123 1.78 0.407 0.493 0.262 0.921 0.641 1.249 1.106 0.331 0.476 0.57 1.014 0.703 1.584 0.146 0.606 0.197 1.234 0.152 1.857h-5.774c0 0.666 0.213 1.301 0.543 1.625zM22.88 14.996c-0.26-0.299-0.703-0.464-1.243-0.464-0.302-0.011-0.602 0.054-0.875 0.187-0.214 0.112-0.403 0.269-0.557 0.46-0.136 0.173-0.237 0.373-0.295 0.588-0.052 0.179-0.086 0.363-0.1 0.55h3.578c-0.027-0.486-0.205-0.95-0.508-1.322z"></path>
<path d="M24 11.2h-4.8v0.8h4.8v-0.8z"></path>
</symbol>
<symbol id="icon-arrow-right" viewBox="0 0 90 32">
<path d="M87.945 17.414c0.781-0.781 0.781-2.047 0-2.828l-12.728-12.728c-0.781-0.781-2.047-0.781-2.829 0s-0.781 2.047 0 2.828l11.314 11.314-11.314 11.314c-0.781 0.781-0.781 2.047 0 2.828s2.047 0.781 2.829 0l12.728-12.728zM0.135 18h86.396v-4h-86.396v4z"></path>
</symbol>
<symbol id="icon-arrow--left" viewBox="0 0 90 32">
<path d="M0.586 17.414c-0.781-0.781-0.781-2.047 0-2.828l12.728-12.728c0.781-0.781 2.047-0.781 2.828 0s0.781 2.047 0 2.828l-11.314 11.314 11.314 11.314c0.781 0.781 0.781 2.047 0 2.828s-2.047 0.781-2.828 0l-12.728-12.728zM88.396 18h-86.396v-4h86.396v4z"></path>
</symbol>
<symbol id="icon-star" viewBox="0 0 32 32">
<path d="M12.999 2.51c1.031-2.786 4.971-2.786 6.002 0l2.322 6.276c0.324 0.876 1.015 1.566 1.891 1.891l6.276 2.322c2.786 1.031 2.786 4.971 0 6.002l-6.276 2.322c-0.876 0.324-1.566 1.015-1.891 1.891l-2.322 6.276c-1.031 2.786-4.971 2.786-6.002 0l-2.322-6.276c-0.324-0.876-1.015-1.566-1.891-1.891l-6.276-2.322c-2.786-1.031-2.786-4.971 0-6.002l6.276-2.322c0.876-0.324 1.566-1.015 1.891-1.891l2.322-6.276z"></path>
</symbol>
</defs>
</svg>