<svg width="40" height="40" viewBox="0 0 40 40" fill="none" xmlns="http://www.w3.org/2000/svg">
<path d="M16.2486 3.13802C17.5372 -0.344449 22.4628 -0.344451 23.7514 3.13802L26.6542 10.9826C27.0593 12.0775 27.9225 12.9407 29.0174 13.3458L36.862 16.2486C40.3444 17.5372 40.3445 22.4628 36.862 23.7514L29.0174 26.6542C27.9225 27.0593 27.0593 27.9225 26.6542 29.0174L23.7514 36.862C22.4628 40.3444 17.5372 40.3445 16.2486 36.862L13.3458 29.0174C12.9407 27.9225 12.0775 27.0593 10.9826 26.6542L3.13802 23.7514C-0.344449 22.4628 -0.344451 17.5372 3.13802 16.2486L10.9826 13.3458C12.0775 12.9407 12.9407 12.0775 13.3458 10.9826L16.2486 3.13802Z" fill="white"/>
</svg>
